<?xml version="1.0" encoding="utf-8" standalone="no"?>
<svg height="110.88pt" version="1.1" viewBox="0 0 111.6 110.88" width="111.6pt" xmlns="http://www.w3.org/2000/svg" xmlns:xlink="http://www.w3.org/1999/xlink">
    <defs>
        <style type="text/css">
            *{stroke-linecap:butt;stroke-linejoin:round;}
        </style>
    </defs>
    <g id="figure_1">
        <g id="patch_1">
            <path d="M 0 110.88 L 111.6 110.88 L 111.6 0 L 0 0 z" style="fill:none;"/>
        </g>
        <g id="axes_1">
            <g id="line2d_1">
                <path clip-path="url(#p64470baa4e)" d="M 89.28 55.44 L 89.152598 53.766176 L 88.771364 52.10509 L 88.139197 50.469386 L 87.260909 48.87151 L 86.143185 47.323625 L 84.794531 45.83751 L 83.22521 44.424476 L 81.447168 43.095277 L 79.473935 41.860029 L 76.869647 40.514928 L 74.034515 39.333349 L 70.999602 38.328238 L 67.798159 37.510607 L 64.465262 36.889414 L 61.037426 36.471466 L 57.552208 36.26134 L 54.047792 36.26134 L 50.562574 36.471466 L 47.134738 36.889414 L 43.801841 37.510607 L 40.600398 38.328238 L 37.565485 39.333349 L 34.730353 40.514928 L 32.126065 41.860029 L 29.781153 43.353915 L 28.043822 44.700712 L 26.517732 46.129241 L 25.214498 47.628631 L 24.144038 49.18747 L 23.314499 50.793895 L 22.732194 52.435679 L 22.401556 54.100328 L 22.325099 55.104827 L 22.325099 55.104827 " style="fill:none;stroke:#808080;stroke-dasharray:1,1.65;stroke-dashoffset:0;"/>
            </g>
            <g id="line2d_2">
                <path clip-path="url(#p64470baa4e)" d="M 22.32 55.44 L 22.447402 57.113824 L 22.828636 58.77491 L 23.460803 60.410614 L 24.339091 62.00849 L 25.456815 63.556375 L 26.805469 65.04249 L 28.37479 66.455524 L 30.152832 67.784723 L 32.126065 69.019971 L 34.730353 70.365072 L 37.565485 71.546651 L 40.600398 72.551762 L 43.801841 73.369393 L 47.134738 73.990586 L 50.562574 74.408534 L 54.047792 74.61866 L 57.552208 74.61866 L 61.037426 74.408534 L 64.465262 73.990586 L 67.798159 73.369393 L 70.999602 72.551762 L 74.034515 71.546651 L 76.869647 70.365072 L 79.473935 69.019971 L 81.818847 67.526085 L 83.556178 66.179288 L 85.082268 64.750759 L 86.385502 63.251369 L 87.455962 61.69253 L 88.285501 60.086105 L 88.867806 58.444321 L 89.198444 56.779672 L 89.28 55.44 L 89.28 55.44 " style="fill:none;stroke:#808080;stroke-linecap:square;"/>
            </g>
            <g id="line2d_3">
                <path clip-path="url(#p64470baa4e)" d="M 55.8 88.704 L 57.484693 88.57742 L 59.156565 88.198645 L 60.802891 87.570557 L 62.411142 86.697935 L 63.969079 85.587422 L 65.464844 84.247469 L 66.887053 82.688274 L 68.224883 80.921702 L 69.468153 78.9612 L 70.821988 76.373713 L 72.01124 73.556873 L 73.022877 70.54154 L 73.845817 67.360751 L 74.471044 64.049357 L 74.891706 60.643636 L 75.103196 57.180903 L 75.103196 53.699097 L 74.891706 50.236364 L 74.471044 46.830643 L 73.845817 43.519249 L 73.022877 40.33846 L 72.01124 37.323127 L 70.821988 34.506287 L 69.468153 31.9188 L 67.964566 29.589017 L 66.609024 27.862894 L 65.171218 26.34665 L 63.662092 25.051824 L 62.093131 23.98827 L 60.476275 23.164083 L 58.823829 22.585535 L 57.148371 22.257029 L 56.13735 22.181066 L 56.13735 22.181066 " style="fill:none;stroke:#808080;stroke-dasharray:1,1.65;stroke-dashoffset:0;"/>
            </g>
            <g id="line2d_4">
                <path clip-path="url(#p64470baa4e)" d="M 55.8 22.176 L 54.115307 22.30258 L 52.443435 22.681355 L 50.797109 23.309443 L 49.188858 24.182065 L 47.630921 25.292578 L 46.135156 26.632531 L 44.712947 28.191726 L 43.375117 29.958298 L 42.131847 31.9188 L 40.778012 34.506287 L 39.58876 37.323127 L 38.577123 40.33846 L 37.754183 43.519249 L 37.128956 46.830643 L 36.708294 50.236364 L 36.496804 53.699097 L 36.496804 57.180903 L 36.708294 60.643636 L 37.128956 64.049357 L 37.754183 67.360751 L 38.577123 70.54154 L 39.58876 73.556873 L 40.778012 76.373713 L 42.131847 78.9612 L 43.635434 81.290983 L 44.990976 83.017106 L 46.428782 84.53335 L 47.937908 85.828176 L 49.506869 86.89173 L 51.123725 87.715917 L 52.776171 88.294465 L 54.451629 88.622971 L 55.8 88.704 L 55.8 88.704 " style="fill:none;stroke:#808080;stroke-linecap:square;"/>
            </g>
            <g id="line2d_5">
                <path clip-path="url(#p64470baa4e)" d="M 89.28 55.44 L 89.152598 52.540851 L 88.771364 49.663767 L 88.139197 46.830643 L 87.260909 44.063042 L 86.143185 41.382026 L 84.794531 38.808 L 83.22521 36.360553 L 81.447168 34.058313 L 79.473935 31.9188 L 77.320529 29.958298 L 75.003339 28.191726 L 72.54 26.632531 L 69.949259 25.292578 L 67.250834 24.182065 L 64.465262 23.309443 L 61.613741 22.681355 L 58.717974 22.30258 L 55.8 22.176 L 52.882026 22.30258 L 49.986259 22.681355 L 47.134738 23.309443 L 44.349166 24.182065 L 41.650741 25.292578 L 39.06 26.632531 L 36.596661 28.191726 L 34.279471 29.958298 L 32.126065 31.9188 L 30.152832 34.058313 L 28.37479 36.360553 L 26.805469 38.808 L 25.456815 41.382026 L 24.339091 44.063042 L 23.460803 46.830643 L 22.828636 49.663767 L 22.447402 52.540851 L 22.32 55.44 L 22.447402 58.339149 L 22.828636 61.216233 L 23.460803 64.049357 L 24.339091 66.816958 L 25.456815 69.497974 L 26.805469 72.072 L 28.37479 74.519447 L 30.152832 76.821687 L 32.126065 78.9612 L 34.279471 80.921702 L 36.596661 82.688274 L 39.06 84.247469 L 41.650741 85.587422 L 44.349166 86.697935 L 47.134738 87.570557 L 49.986259 88.198645 L 52.882026 88.57742 L 55.8 88.704 L 58.717974 88.57742 L 61.613741 88.198645 L 64.465262 87.570557 L 67.250834 86.697935 L 69.949259 85.587422 L 72.54 84.247469 L 75.003339 82.688274 L 77.320529 80.921702 L 79.473935 78.9612 L 81.447168 76.821687 L 83.22521 74.519447 L 84.794531 72.072 L 86.143185 69.497974 L 87.260909 66.816958 L 88.139197 64.049357 L 88.771364 61.216233 L 89.152598 58.339149 L 89.28 55.44 L 89.28 55.44 " style="fill:none;stroke:#808080;stroke-linecap:square;"/>
            </g>
            <g id="PolyCollection_1">
                <path clip-path="url(#p64470baa4e)" d="M 22.32 55.104827 L 22.32 55.44 L 22.325099 55.775173 L 22.340395 56.110244 L 22.365883 56.445111 L 22.401556 56.779672 L 22.447402 57.113824 L 22.503407 57.447467 L 22.569555 57.780498 L 22.645825 58.112817 L 22.732194 58.444321 L 22.828636 58.77491 L 22.935122 59.104483 L 23.051618 59.43294 L 23.17809 59.76018 L 23.314499 60.086105 L 23.460803 60.410614 L 23.616958 60.73361 L 23.782917 61.054993 L 23.958628 61.374665 L 24.144038 61.69253 L 24.339091 62.00849 L 24.543727 62.322449 L 24.757885 62.634312 L 24.981498 62.943983 L 25.214498 63.251369 L 25.456815 63.556375 L 25.708375 63.858909 L 25.969102 64.158878 L 26.238915 64.456192 L 26.517732 64.750759 L 26.805469 65.04249 L 27.102039 65.331296 L 27.40735 65.617089 L 27.721309 65.899781 L 28.043822 66.179288 L 28.37479 66.455524 L 28.714111 66.728404 L 29.061683 66.997845 L 29.4174 67.263766 L 29.781153 67.526085 L 30.152832 67.784723 L 30.532323 68.0396 L 30.919511 68.290639 L 31.314278 68.537764 L 31.716503 68.7809 L 32.126065 69.019971 L 32.542838 69.254906 L 32.966695 69.485633 L 33.397507 69.712081 L 33.835144 69.934182 L 34.279471 70.151868 L 34.730353 70.365072 L 35.187654 70.57373 L 35.651233 70.777778 L 36.12095 70.977155 L 36.596661 71.171798 L 37.078222 71.361649 L 37.565485 71.546651 L 38.058303 71.726746 L 38.556525 71.90188 L 39.568574 71.566707 L 40.082092 71.056502 L 40.600398 70.54154 L 41.123334 70.021978 L 41.650741 69.497974 L 42.182457 68.969688 L 42.718322 68.43728 L 43.258171 67.900914 L 43.801841 67.360751 L 44.349166 66.816958 L 44.899978 66.269699 L 45.454111 65.719141 L 46.011395 65.165452 L 46.571661 64.608801 L 47.134738 64.049357 L 47.700455 63.48729 L 48.268639 62.922772 L 48.839117 62.355974 L 49.411715 61.78707 L 49.986259 61.216233 L 50.562574 60.643636 L 51.140485 60.069454 L 51.719814 59.493862 L 52.300387 58.917035 L 52.882026 58.339149 L 53.464553 57.760379 L 54.047792 57.180903 L 54.631565 56.600897 L 55.215693 56.020537 L 55.8 55.44 L 56.384307 54.859463 L 56.968435 54.279103 L 57.552208 53.699097 L 58.135447 53.119621 L 58.717974 52.540851 L 59.299613 51.962965 L 59.880186 51.386138 L 60.459515 50.810546 L 61.037426 50.236364 L 61.613741 49.663767 L 62.188285 49.09293 L 62.760883 48.524026 L 63.331361 47.957228 L 63.899545 47.39271 L 64.465262 46.830643 L 65.028339 46.271199 L 65.588605 45.714548 L 66.145889 45.160859 L 66.700022 44.610301 L 67.250834 44.063042 L 67.798159 43.519249 L 68.341829 42.979086 L 68.881678 42.44272 L 69.417543 41.910312 L 69.949259 41.382026 L 70.476666 40.858022 L 70.999602 40.33846 L 71.517908 39.823498 L 72.031426 39.313293 L 72.54 38.808 L 72.54 38.808 L 72.54 38.808 L 72.031426 38.642947 L 71.517908 38.48301 L 70.999602 38.328238 L 70.476666 38.178679 L 69.949259 38.034378 L 69.417543 37.895378 L 68.881678 37.761723 L 68.341829 37.633453 L 67.798159 37.510607 L 67.250834 37.393223 L 66.700022 37.281335 L 66.145889 37.174979 L 65.588605 37.074187 L 65.028339 36.978989 L 64.465262 36.889414 L 63.899545 36.805491 L 63.331361 36.727243 L 62.760883 36.654696 L 62.188285 36.58787 L 61.613741 36.526787 L 61.037426 36.471466 L 60.459515 36.421922 L 59.880186 36.378172 L 59.299613 36.340228 L 58.717974 36.308101 L 58.135447 36.281803 L 57.552208 36.26134 L 56.968435 36.24672 L 56.384307 36.237946 L 55.8 36.235021 L 55.215693 36.237946 L 54.631565 36.24672 L 54.047792 36.26134 L 53.464553 36.281803 L 52.882026 36.308101 L 52.300387 36.340228 L 51.719814 36.378172 L 51.140485 36.421922 L 50.562574 36.471466 L 49.986259 36.526787 L 49.411715 36.58787 L 48.839117 36.654696 L 48.268639 36.727243 L 47.700455 36.805491 L 47.134738 36.889414 L 46.571661 36.978989 L 46.011395 37.074187 L 45.454111 37.174979 L 44.899978 37.281335 L 44.349166 37.393223 L 43.801841 37.510607 L 43.258171 37.633453 L 42.718322 37.761723 L 42.182457 37.895378 L 41.650741 38.034378 L 41.123334 38.178679 L 40.600398 38.328238 L 40.082092 38.48301 L 39.568574 38.642947 L 38.556525 38.808 L 38.058303 38.97812 L 37.565485 39.153254 L 37.078222 39.333349 L 36.596661 39.518351 L 36.12095 39.708202 L 35.651233 39.902845 L 35.187654 40.102222 L 34.730353 40.30627 L 34.279471 40.514928 L 33.835144 40.728132 L 33.397507 40.945818 L 32.966695 41.167919 L 32.542838 41.394367 L 32.126065 41.625094 L 31.716503 41.860029 L 31.314278 42.0991 L 30.919511 42.342236 L 30.532323 42.589361 L 30.152832 42.8404 L 29.781153 43.095277 L 29.4174 43.353915 L 29.061683 43.616234 L 28.714111 43.882155 L 28.37479 44.151596 L 28.043822 44.424476 L 27.721309 44.700712 L 27.40735 44.980219 L 27.102039 45.262911 L 26.805469 45.548704 L 26.517732 45.83751 L 26.238915 46.129241 L 25.969102 46.423808 L 25.708375 46.721122 L 25.456815 47.021091 L 25.214498 47.323625 L 24.981498 47.628631 L 24.757885 47.936017 L 24.543727 48.245688 L 24.339091 48.557551 L 24.144038 48.87151 L 23.958628 49.18747 L 23.782917 49.505335 L 23.616958 49.825007 L 23.460803 50.14639 L 23.314499 50.469386 L 23.17809 50.793895 L 23.051618 51.11982 L 22.935122 51.44706 L 22.828636 51.775517 L 22.732194 52.10509 L 22.645825 52.435679 L 22.569555 52.767183 L 22.503407 53.099502 L 22.447402 53.432533 L 22.401556 53.766176 L 22.365883 54.100328 L 22.340395 54.434889 L 22.325099 54.769756 L 22.32 55.104827 z" style="fill:#d2691e;fill-opacity:0.5;"/>
            </g>
            <g id="PolyCollection_2">
                <path clip-path="url(#p64470baa4e)" d="M 39.06 72.072 L 39.06 72.072 L 38.893875 71.566707 L 38.732899 71.056502 L 38.577123 70.54154 L 38.426592 70.021978 L 38.281354 69.497974 L 38.141452 68.969688 L 38.006929 68.43728 L 37.877826 67.900914 L 37.754183 67.360751 L 37.636036 66.816958 L 37.523422 66.269699 L 37.416375 65.719141 L 37.314928 65.165452 L 37.219112 64.608801 L 37.128956 64.049357 L 37.044487 63.48729 L 36.965732 62.922772 L 36.892713 62.355974 L 36.825454 61.78707 L 36.763974 61.216233 L 36.708294 60.643636 L 36.658428 60.069454 L 36.614394 59.493862 L 36.576203 58.917035 L 36.543868 58.339149 L 36.517399 57.760379 L 36.496804 57.180903 L 36.482088 56.600897 L 36.473257 56.020537 L 36.470313 55.44 L 36.473257 54.859463 L 36.482088 54.279103 L 36.496804 53.699097 L 36.517399 53.119621 L 36.543868 52.540851 L 36.576203 51.962965 L 36.614394 51.386138 L 36.658428 50.810546 L 36.708294 50.236364 L 36.763974 49.663767 L 36.825454 49.09293 L 36.892713 48.524026 L 36.965732 47.957228 L 37.044487 47.39271 L 37.128956 46.830643 L 37.219112 46.271199 L 37.314928 45.714548 L 37.416375 45.160859 L 37.523422 44.610301 L 37.636036 44.063042 L 37.754183 43.519249 L 37.877826 42.979086 L 38.006929 42.44272 L 38.141452 41.910312 L 38.281354 41.382026 L 38.426592 40.858022 L 38.577123 40.33846 L 38.732899 39.823498 L 38.893875 39.313293 L 39.06 38.808 L 39.231224 38.307773 L 39.407496 37.812766 L 39.58876 37.323127 L 39.774963 36.839007 L 39.966047 36.360553 L 40.161955 35.887911 L 40.362626 35.421225 L 40.567999 34.960637 L 40.778012 34.506287 L 40.992601 34.058313 L 41.2117 33.616852 L 41.435243 33.18204 L 41.663162 32.754007 L 41.895387 32.332884 L 42.131847 31.9188 L 42.372471 31.511881 L 42.617185 31.11225 L 42.865915 30.720031 L 43.118584 30.335341 L 55.8 55.44 L 55.8 55.44 L 55.8 55.44 L 43.118584 68.0396 L 42.865915 68.290639 L 42.617185 68.537764 L 42.372471 68.7809 L 42.131847 69.019971 L 41.895387 69.254906 L 41.663162 69.485633 L 41.435243 69.712081 L 41.2117 69.934182 L 40.992601 70.151868 L 40.778012 70.365072 L 40.567999 70.57373 L 40.362626 70.777778 L 40.161955 70.977155 L 39.966047 71.171798 L 39.774963 71.361649 L 39.58876 71.546651 L 39.407496 71.726746 L 39.231224 71.90188 L 39.06 72.072 L 38.893875 72.237053 L 38.732899 72.39699 L 38.577123 72.551762 L 38.426592 72.701321 L 38.281354 72.845622 L 38.141452 72.984622 L 38.006929 73.118277 L 37.877826 73.246547 L 37.754183 73.369393 L 37.636036 73.486777 L 37.523422 73.598665 L 37.416375 73.705021 L 37.314928 73.805813 L 37.219112 73.901011 L 37.128956 73.990586 L 37.044487 74.074509 L 36.965732 74.152757 L 36.892713 74.225304 L 36.825454 74.29213 L 36.763974 74.353213 L 36.708294 74.408534 L 36.658428 74.458078 L 36.614394 74.501828 L 36.576203 74.539772 L 36.543868 74.571899 L 36.517399 74.598197 L 36.496804 74.61866 L 36.482088 74.63328 L 36.473257 74.642054 L 36.470313 74.644979 L 36.473257 74.642054 L 36.482088 74.63328 L 36.496804 74.61866 L 36.517399 74.598197 L 36.543868 74.571899 L 36.576203 74.539772 L 36.614394 74.501828 L 36.658428 74.458078 L 36.708294 74.408534 L 36.763974 74.353213 L 36.825454 74.29213 L 36.892713 74.225304 L 36.965732 74.152757 L 37.044487 74.074509 L 37.128956 73.990586 L 37.219112 73.901011 L 37.314928 73.805813 L 37.416375 73.705021 L 37.523422 73.598665 L 37.636036 73.486777 L 37.754183 73.369393 L 37.877826 73.246547 L 38.006929 73.118277 L 38.141452 72.984622 L 38.281354 72.845622 L 38.426592 72.701321 L 38.577123 72.551762 L 38.732899 72.39699 L 38.893875 72.237053 L 39.06 72.072 z" style="fill:#4169e1;fill-opacity:0.5;"/>
            </g>
            <g id="line2d_6">
                <path clip-path="url(#p64470baa4e)" d="M 39.06 72.072 L 38.893875 71.566707 L 38.732899 71.056502 L 38.577123 70.54154 L 38.426592 70.021978 L 38.281354 69.497974 L 38.141452 68.969688 L 38.006929 68.43728 L 37.877826 67.900914 L 37.754183 67.360751 L 37.636036 66.816958 L 37.523422 66.269699 L 37.416375 65.719141 L 37.314928 65.165452 L 37.219112 64.608801 L 37.128956 64.049357 L 37.044487 63.48729 L 36.965732 62.922772 L 36.892713 62.355974 L 36.825454 61.78707 L 36.763974 61.216233 L 36.708294 60.643636 L 36.658428 60.069454 L 36.614394 59.493862 L 36.576203 58.917035 L 36.543868 58.339149 L 36.517399 57.760379 L 36.496804 57.180903 L 36.482088 56.600897 L 36.473257 56.020537 L 36.470313 55.44 L 36.473257 54.859463 L 36.482088 54.279103 L 36.496804 53.699097 L 36.517399 53.119621 L 36.543868 52.540851 L 36.576203 51.962965 L 36.614394 51.386138 L 36.658428 50.810546 L 36.708294 50.236364 L 36.763974 49.663767 L 36.825454 49.09293 L 36.892713 48.524026 L 36.965732 47.957228 L 37.044487 47.39271 L 37.128956 46.830643 L 37.219112 46.271199 L 37.314928 45.714548 L 37.416375 45.160859 L 37.523422 44.610301 L 37.636036 44.063042 L 37.754183 43.519249 L 37.877826 42.979086 L 38.006929 42.44272 L 38.141452 41.910312 L 38.281354 41.382026 L 38.426592 40.858022 L 38.577123 40.33846 L 38.732899 39.823498 L 38.893875 39.313293 L 39.06 38.808 L 39.231224 38.307773 L 39.407496 37.812766 L 39.58876 37.323127 L 39.774963 36.839007 L 39.966047 36.360553 L 40.161955 35.887911 L 40.362626 35.421225 L 40.567999 34.960637 L 40.778012 34.506287 L 40.992601 34.058313 L 41.2117 33.616852 L 41.435243 33.18204 L 41.663162 32.754007 L 41.895387 32.332884 L 42.131847 31.9188 L 42.372471 31.511881 L 42.617185 31.11225 L 42.865915 30.720031 L 43.118584 30.335341 " style="fill:none;stroke:#000000;stroke-linecap:square;stroke-width:3;"/>
            </g>
            <g id="line2d_7">
                <path clip-path="url(#p64470baa4e)" d="M 22.32 55.44 L 22.325099 55.775173 L 22.340395 56.110244 L 22.365883 56.445111 L 22.401556 56.779672 L 22.447402 57.113824 L 22.503407 57.447467 L 22.569555 57.780498 L 22.645825 58.112817 L 22.732194 58.444321 L 22.828636 58.77491 L 22.935122 59.104483 L 23.051618 59.43294 L 23.17809 59.76018 L 23.314499 60.086105 L 23.460803 60.410614 L 23.616958 60.73361 L 23.782917 61.054993 L 23.958628 61.374665 L 24.144038 61.69253 L 24.339091 62.00849 L 24.543727 62.322449 L 24.757885 62.634312 L 24.981498 62.943983 L 25.214498 63.251369 L 25.456815 63.556375 L 25.708375 63.858909 L 25.969102 64.158878 L 26.238915 64.456192 L 26.517732 64.750759 L 26.805469 65.04249 L 27.102039 65.331296 L 27.40735 65.617089 L 27.721309 65.899781 L 28.043822 66.179288 L 28.37479 66.455524 L 28.714111 66.728404 L 29.061683 66.997845 L 29.4174 67.263766 L 29.781153 67.526085 L 30.152832 67.784723 L 30.532323 68.0396 L 30.919511 68.290639 L 31.314278 68.537764 L 31.716503 68.7809 L 32.126065 69.019971 L 32.542838 69.254906 L 32.966695 69.485633 L 33.397507 69.712081 L 33.835144 69.934182 L 34.279471 70.151868 L 34.730353 70.365072 L 35.187654 70.57373 L 35.651233 70.777778 L 36.12095 70.977155 L 36.596661 71.171798 L 37.078222 71.361649 L 37.565485 71.546651 L 38.058303 71.726746 L 38.556525 71.90188 L 39.06 72.072 " style="fill:none;stroke:#000000;stroke-linecap:square;stroke-width:3;"/>
            </g>
            <g id="line2d_8">
                <path clip-path="url(#p64470baa4e)" d="M 72.54 38.808 L 72.031426 38.642947 L 71.517908 38.48301 L 70.999602 38.328238 L 70.476666 38.178679 L 69.949259 38.034378 L 69.417543 37.895378 L 68.881678 37.761723 L 68.341829 37.633453 L 67.798159 37.510607 L 67.250834 37.393223 L 66.700022 37.281335 L 66.145889 37.174979 L 65.588605 37.074187 L 65.028339 36.978989 L 64.465262 36.889414 L 63.899545 36.805491 L 63.331361 36.727243 L 62.760883 36.654696 L 62.188285 36.58787 L 61.613741 36.526787 L 61.037426 36.471466 L 60.459515 36.421922 L 59.880186 36.378172 L 59.299613 36.340228 L 58.717974 36.308101 L 58.135447 36.281803 L 57.552208 36.26134 L 56.968435 36.24672 L 56.384307 36.237946 L 55.8 36.235021 L 55.215693 36.237946 L 54.631565 36.24672 L 54.047792 36.26134 L 53.464553 36.281803 L 52.882026 36.308101 L 52.300387 36.340228 L 51.719814 36.378172 L 51.140485 36.421922 L 50.562574 36.471466 L 49.986259 36.526787 L 49.411715 36.58787 L 48.839117 36.654696 L 48.268639 36.727243 L 47.700455 36.805491 L 47.134738 36.889414 L 46.571661 36.978989 L 46.011395 37.074187 L 45.454111 37.174979 L 44.899978 37.281335 L 44.349166 37.393223 L 43.801841 37.510607 L 43.258171 37.633453 L 42.718322 37.761723 L 42.182457 37.895378 L 41.650741 38.034378 L 41.123334 38.178679 L 40.600398 38.328238 L 40.082092 38.48301 L 39.568574 38.642947 L 39.06 38.808 L 38.556525 38.97812 L 38.058303 39.153254 L 37.565485 39.333349 L 37.078222 39.518351 L 36.596661 39.708202 L 36.12095 39.902845 L 35.651233 40.102222 L 35.187654 40.30627 L 34.730353 40.514928 L 34.279471 40.728132 L 33.835144 40.945818 L 33.397507 41.167919 L 32.966695 41.394367 L 32.542838 41.625094 L 32.126065 41.860029 L 31.716503 42.0991 L 31.314278 42.342236 L 30.919511 42.589361 L 30.532323 42.8404 L 30.152832 43.095277 L 29.781153 43.353915 L 29.4174 43.616234 L 29.061683 43.882155 L 28.714111 44.151596 L 28.37479 44.424476 L 28.043822 44.700712 L 27.721309 44.980219 L 27.40735 45.262911 L 27.102039 45.548704 L 26.805469 45.83751 L 26.517732 46.129241 L 26.238915 46.423808 L 25.969102 46.721122 L 25.708375 47.021091 L 25.456815 47.323625 L 25.214498 47.628631 L 24.981498 47.936017 L 24.757885 48.245688 L 24.543727 48.557551 L 24.339091 48.87151 L 24.144038 49.18747 L 23.958628 49.505335 L 23.782917 49.825007 L 23.616958 50.14639 L 23.460803 50.469386 L 23.314499 50.793895 L 23.17809 51.11982 L 23.051618 51.44706 L 22.935122 51.775517 L 22.828636 52.10509 L 22.732194 52.435679 L 22.645825 52.767183 L 22.569555 53.099502 L 22.503407 53.432533 L 22.447402 53.766176 L 22.401556 54.100328 L 22.365883 54.434889 L 22.340395 54.769756 L 22.325099 55.104827 " style="fill:none;stroke:#000000;stroke-dasharray:3,4.95;stroke-dashoffset:0;stroke-width:3;"/>
            </g>
            <g id="PolyCollection_3">
                <defs>
                    <path d="M 47.43 0 L 47.43 0 L 55.8 0 L 64.17 0 L 64.17 0 L 64.17 0 L 55.8 -16.632 L 47.43 0 z" id="m77c09bfad1"/>
                </defs>
                <g clip-path="url(#p64470baa4e)">
                    <use x="0" xlink:href="#m77c09bfad1" y="110.88"/>
                </g>
            </g>
            <g id="PolyCollection_4">
                <defs>
                    <path d="M 0 -63.756 L 0 -47.124 L 16.74 -55.44 L 16.74 -55.44 L 16.74 -55.44 L 0 -63.756 z" id="me929bb3563"/>
                </defs>
                <g clip-path="url(#p64470baa4e)">
                    <use x="0" xlink:href="#me929bb3563" y="110.88"/>
                </g>
            </g>
        </g>
    </g>
    <defs>
        <clipPath id="p64470baa4e">
            <rect height="110.88" width="111.6" x="0" y="-0"/>
        </clipPath>
    </defs>
</svg>
