<?xml version="1.0" encoding="utf-8" standalone="no"?>
<svg height="110.88pt" version="1.1" viewBox="0 0 111.6 110.88" width="111.6pt" xmlns="http://www.w3.org/2000/svg" xmlns:xlink="http://www.w3.org/1999/xlink">
    <defs>
        <style type="text/css">
            *{stroke-linecap:butt;stroke-linejoin:round;}
        </style>
    </defs>
    <g id="figure_1">
        <g id="patch_1">
            <path d="M 0 110.88 L 111.6 110.88 L 111.6 0 L 0 0 z" style="fill:none;"/>
        </g>
        <g id="axes_1">
            <g id="line2d_1">
                <path clip-path="url(#p15f7785776)" d="M 89.28 55.44 L 89.152598 53.766176 L 88.771364 52.10509 L 88.139197 50.469386 L 87.260909 48.87151 L 86.143185 47.323625 L 84.794531 45.83751 L 83.22521 44.424476 L 81.447168 43.095277 L 79.473935 41.860029 L 76.869647 40.514928 L 74.034515 39.333349 L 70.999602 38.328238 L 67.798159 37.510607 L 64.465262 36.889414 L 61.037426 36.471466 L 57.552208 36.26134 L 54.047792 36.26134 L 50.562574 36.471466 L 47.134738 36.889414 L 43.801841 37.510607 L 40.600398 38.328238 L 37.565485 39.333349 L 34.730353 40.514928 L 32.126065 41.860029 L 29.781153 43.353915 L 28.043822 44.700712 L 26.517732 46.129241 L 25.214498 47.628631 L 24.144038 49.18747 L 23.314499 50.793895 L 22.732194 52.435679 L 22.401556 54.100328 L 22.325099 55.104827 L 22.325099 55.104827 " style="fill:none;stroke:#808080;stroke-dasharray:1,1.65;stroke-dashoffset:0;"/>
            </g>
            <g id="line2d_2">
                <path clip-path="url(#p15f7785776)" d="M 22.32 55.44 L 22.447402 57.113824 L 22.828636 58.77491 L 23.460803 60.410614 L 24.339091 62.00849 L 25.456815 63.556375 L 26.805469 65.04249 L 28.37479 66.455524 L 30.152832 67.784723 L 32.126065 69.019971 L 34.730353 70.365072 L 37.565485 71.546651 L 40.600398 72.551762 L 43.801841 73.369393 L 47.134738 73.990586 L 50.562574 74.408534 L 54.047792 74.61866 L 57.552208 74.61866 L 61.037426 74.408534 L 64.465262 73.990586 L 67.798159 73.369393 L 70.999602 72.551762 L 74.034515 71.546651 L 76.869647 70.365072 L 79.473935 69.019971 L 81.818847 67.526085 L 83.556178 66.179288 L 85.082268 64.750759 L 86.385502 63.251369 L 87.455962 61.69253 L 88.285501 60.086105 L 88.867806 58.444321 L 89.198444 56.779672 L 89.28 55.44 L 89.28 55.44 " style="fill:none;stroke:#808080;stroke-linecap:square;"/>
            </g>
            <g id="line2d_3">
                <path clip-path="url(#p15f7785776)" d="M 55.8 88.704 L 57.484693 88.57742 L 59.156565 88.198645 L 60.802891 87.570557 L 62.411142 86.697935 L 63.969079 85.587422 L 65.464844 84.247469 L 66.887053 82.688274 L 68.224883 80.921702 L 69.468153 78.9612 L 70.821988 76.373713 L 72.01124 73.556873 L 73.022877 70.54154 L 73.845817 67.360751 L 74.471044 64.049357 L 74.891706 60.643636 L 75.103196 57.180903 L 75.103196 53.699097 L 74.891706 50.236364 L 74.471044 46.830643 L 73.845817 43.519249 L 73.022877 40.33846 L 72.01124 37.323127 L 70.821988 34.506287 L 69.468153 31.9188 L 67.964566 29.589017 L 66.609024 27.862894 L 65.171218 26.34665 L 63.662092 25.051824 L 62.093131 23.98827 L 60.476275 23.164083 L 58.823829 22.585535 L 57.148371 22.257029 L 56.13735 22.181066 L 56.13735 22.181066 " style="fill:none;stroke:#808080;stroke-dasharray:1,1.65;stroke-dashoffset:0;"/>
            </g>
            <g id="line2d_4">
                <path clip-path="url(#p15f7785776)" d="M 55.8 22.176 L 54.115307 22.30258 L 52.443435 22.681355 L 50.797109 23.309443 L 49.188858 24.182065 L 47.630921 25.292578 L 46.135156 26.632531 L 44.712947 28.191726 L 43.375117 29.958298 L 42.131847 31.9188 L 40.778012 34.506287 L 39.58876 37.323127 L 38.577123 40.33846 L 37.754183 43.519249 L 37.128956 46.830643 L 36.708294 50.236364 L 36.496804 53.699097 L 36.496804 57.180903 L 36.708294 60.643636 L 37.128956 64.049357 L 37.754183 67.360751 L 38.577123 70.54154 L 39.58876 73.556873 L 40.778012 76.373713 L 42.131847 78.9612 L 43.635434 81.290983 L 44.990976 83.017106 L 46.428782 84.53335 L 47.937908 85.828176 L 49.506869 86.89173 L 51.123725 87.715917 L 52.776171 88.294465 L 54.451629 88.622971 L 55.8 88.704 L 55.8 88.704 " style="fill:none;stroke:#808080;stroke-linecap:square;"/>
            </g>
            <g id="line2d_5">
                <path clip-path="url(#p15f7785776)" d="M 89.28 55.44 L 89.152598 52.540851 L 88.771364 49.663767 L 88.139197 46.830643 L 87.260909 44.063042 L 86.143185 41.382026 L 84.794531 38.808 L 83.22521 36.360553 L 81.447168 34.058313 L 79.473935 31.9188 L 77.320529 29.958298 L 75.003339 28.191726 L 72.54 26.632531 L 69.949259 25.292578 L 67.250834 24.182065 L 64.465262 23.309443 L 61.613741 22.681355 L 58.717974 22.30258 L 55.8 22.176 L 52.882026 22.30258 L 49.986259 22.681355 L 47.134738 23.309443 L 44.349166 24.182065 L 41.650741 25.292578 L 39.06 26.632531 L 36.596661 28.191726 L 34.279471 29.958298 L 32.126065 31.9188 L 30.152832 34.058313 L 28.37479 36.360553 L 26.805469 38.808 L 25.456815 41.382026 L 24.339091 44.063042 L 23.460803 46.830643 L 22.828636 49.663767 L 22.447402 52.540851 L 22.32 55.44 L 22.447402 58.339149 L 22.828636 61.216233 L 23.460803 64.049357 L 24.339091 66.816958 L 25.456815 69.497974 L 26.805469 72.072 L 28.37479 74.519447 L 30.152832 76.821687 L 32.126065 78.9612 L 34.279471 80.921702 L 36.596661 82.688274 L 39.06 84.247469 L 41.650741 85.587422 L 44.349166 86.697935 L 47.134738 87.570557 L 49.986259 88.198645 L 52.882026 88.57742 L 55.8 88.704 L 58.717974 88.57742 L 61.613741 88.198645 L 64.465262 87.570557 L 67.250834 86.697935 L 69.949259 85.587422 L 72.54 84.247469 L 75.003339 82.688274 L 77.320529 80.921702 L 79.473935 78.9612 L 81.447168 76.821687 L 83.22521 74.519447 L 84.794531 72.072 L 86.143185 69.497974 L 87.260909 66.816958 L 88.139197 64.049357 L 88.771364 61.216233 L 89.152598 58.339149 L 89.28 55.44 L 89.28 55.44 " style="fill:none;stroke:#808080;stroke-linecap:square;"/>
            </g>
            <g id="PolyCollection_1">
                <path clip-path="url(#p15f7785776)" d="M 39.06 72.072 L 39.06 72.072 L 38.893875 71.566707 L 38.732899 71.056502 L 38.577123 70.54154 L 38.426592 70.021978 L 38.281354 69.497974 L 38.141452 68.969688 L 38.006929 68.43728 L 37.877826 67.900914 L 37.754183 67.360751 L 37.636036 66.816958 L 37.523422 66.269699 L 37.416375 65.719141 L 37.314928 65.165452 L 37.219112 64.608801 L 37.128956 64.049357 L 37.044487 63.48729 L 36.965732 62.922772 L 36.892713 62.355974 L 36.825454 61.78707 L 36.763974 61.216233 L 36.708294 60.643636 L 36.658428 60.069454 L 36.614394 59.493862 L 36.576203 58.917035 L 36.543868 58.339149 L 36.517399 57.760379 L 36.496804 57.180903 L 36.482088 56.600897 L 36.473257 56.020537 L 36.470313 55.44 L 36.473257 54.859463 L 36.482088 54.279103 L 36.496804 53.699097 L 36.517399 53.119621 L 36.543868 52.540851 L 36.576203 51.962965 L 36.614394 51.386138 L 36.658428 50.810546 L 36.708294 50.236364 L 55.8 55.44 L 55.8 55.44 L 55.8 55.44 L 36.708294 74.408534 L 36.658428 74.458078 L 36.614394 74.501828 L 36.576203 74.539772 L 36.543868 74.571899 L 36.517399 74.598197 L 36.496804 74.61866 L 36.482088 74.63328 L 36.473257 74.642054 L 36.470313 74.644979 L 36.473257 74.642054 L 36.482088 74.63328 L 36.496804 74.61866 L 36.517399 74.598197 L 36.543868 74.571899 L 36.576203 74.539772 L 36.614394 74.501828 L 36.658428 74.458078 L 36.708294 74.408534 L 36.763974 74.353213 L 36.825454 74.29213 L 36.892713 74.225304 L 36.965732 74.152757 L 37.044487 74.074509 L 37.128956 73.990586 L 37.219112 73.901011 L 37.314928 73.805813 L 37.416375 73.705021 L 37.523422 73.598665 L 37.636036 73.486777 L 37.754183 73.369393 L 37.877826 73.246547 L 38.006929 73.118277 L 38.141452 72.984622 L 38.281354 72.845622 L 38.426592 72.701321 L 38.577123 72.551762 L 38.732899 72.39699 L 38.893875 72.237053 L 39.06 72.072 z" style="fill:#4169e1;fill-opacity:0.5;"/>
            </g>
            <g id="line2d_6">
                <path clip-path="url(#p15f7785776)" d="M 39.06 72.072 L 38.893875 71.566707 L 38.732899 71.056502 L 38.577123 70.54154 L 38.426592 70.021978 L 38.281354 69.497974 L 38.141452 68.969688 L 38.006929 68.43728 L 37.877826 67.900914 L 37.754183 67.360751 L 37.636036 66.816958 L 37.523422 66.269699 L 37.416375 65.719141 L 37.314928 65.165452 L 37.219112 64.608801 L 37.128956 64.049357 L 37.044487 63.48729 L 36.965732 62.922772 L 36.892713 62.355974 L 36.825454 61.78707 L 36.763974 61.216233 L 36.708294 60.643636 L 36.658428 60.069454 L 36.614394 59.493862 L 36.576203 58.917035 L 36.543868 58.339149 L 36.517399 57.760379 L 36.496804 57.180903 L 36.482088 56.600897 L 36.473257 56.020537 L 36.470313 55.44 L 36.473257 54.859463 L 36.482088 54.279103 L 36.496804 53.699097 L 36.517399 53.119621 L 36.543868 52.540851 L 36.576203 51.962965 L 36.614394 51.386138 L 36.658428 50.810546 L 36.708294 50.236364 " style="fill:none;stroke:#000000;stroke-linecap:square;stroke-width:3;"/>
            </g>
            <g id="PolyCollection_2">
                <defs>
                    <path d="M 47.43 0 L 47.43 0 L 55.8 0 L 64.17 0 L 64.17 0 L 64.17 0 L 55.8 -16.632 L 47.43 0 z" id="m594d9d6d20"/>
                </defs>
                <g clip-path="url(#p15f7785776)">
                    <use x="0" xlink:href="#m594d9d6d20" y="110.88"/>
                </g>
            </g>
        </g>
    </g>
    <defs>
        <clipPath id="p15f7785776">
            <rect height="110.88" width="111.6" x="0" y="-0"/>
        </clipPath>
    </defs>
</svg>
