<?xml version="1.0" encoding="utf-8" standalone="no"?>
<svg height="110.88pt" version="1.1" viewBox="0 0 111.6 110.88" width="111.6pt" xmlns="http://www.w3.org/2000/svg" xmlns:xlink="http://www.w3.org/1999/xlink">
    <defs>
        <style type="text/css">
            *{stroke-linecap:butt;stroke-linejoin:round;}
        </style>
    </defs>
    <g id="figure_1">
        <g id="patch_1">
            <path d="M 0 110.88 L 111.6 110.88 L 111.6 0 L 0 0 z" style="fill:none;"/>
        </g>
        <g id="axes_1">
            <g id="LineCollection_1">
                <path clip-path="url(#p6cf7aed1da)" d="M 55.8 88.704 L 55.8 110.88 " style="fill:none;stroke:#000000;stroke-width:3;"/>
            </g>
            <g id="patch_2">
                <path clip-path="url(#p6cf7aed1da)" d="M 55.8 72.072 C 69.1185 72.072 81.893301 70.319548 91.310903 67.2006 C 100.728504 64.081652 106.02 59.850858 106.02 55.44 C 106.02 51.029142 100.728504 46.798348 91.310903 43.6794 C 81.893301 40.560452 69.1185 38.808 55.8 38.808 C 42.4815 38.808 29.706699 40.560452 20.289097 43.6794 C 10.871496 46.798348 5.58 51.029142 5.58 55.44 C 5.58 59.850858 10.871496 64.081652 20.289097 67.2006 C 29.706699 70.319548 42.4815 72.072 55.8 72.072 z" style="fill:#c0c0c0;"/>
            </g>
            <g id="LineCollection_2">
                <path clip-path="url(#p6cf7aed1da)" d="M 55.8 55.44 L 55.8 -0 " style="fill:none;stroke:#000000;stroke-width:3;"/>
            </g>
            <g id="PolyCollection_1">
                <defs>
                    <path d="M 55.8 -47.124 L 55.8 -30.492 L 72.54 -38.808 L 72.54 -38.808 L 72.54 -38.808 L 55.8 -47.124 z" id="m7d78a0e595" style="stroke:#000000;"/>
                </defs>
                <g clip-path="url(#p6cf7aed1da)">
                    <use style="stroke:#000000;" x="0" xlink:href="#m7d78a0e595" y="110.88"/>
                </g>
            </g>
            <g id="PathCollection_1">
                <defs>
                    <path d="M 0 3.162278 C 0.838646 3.162278 1.643056 2.82908 2.236068 2.236068 C 2.82908 1.643056 3.162278 0.838646 3.162278 0 C 3.162278 -0.838646 2.82908 -1.643056 2.236068 -2.236068 C 1.643056 -2.82908 0.838646 -3.162278 0 -3.162278 C -0.838646 -3.162278 -1.643056 -2.82908 -2.236068 -2.236068 C -2.82908 -1.643056 -3.162278 -0.838646 -3.162278 0 C -3.162278 0.838646 -2.82908 1.643056 -2.236068 2.236068 C -1.643056 2.82908 -0.838646 3.162278 0 3.162278 z" id="m76b8b08c03" style="stroke:#000000;"/>
                </defs>
                <g clip-path="url(#p6cf7aed1da)">
                    <use style="stroke:#000000;" x="55.8" xlink:href="#m76b8b08c03" y="55.44"/>
                    <use style="stroke:#000000;" x="5.587649" xlink:href="#m76b8b08c03" y="55.149732"/>
                </g>
            </g>
            <g id="line2d_1">
                <path clip-path="url(#p6cf7aed1da)" d="M 55.8 55.44 L 5.587649 55.149732 " style="fill:none;stroke:#000000;stroke-dasharray:2,3.3;stroke-dashoffset:0;stroke-width:2;"/>
            </g>
            <g id="line2d_2">
                <path clip-path="url(#p6cf7aed1da)" d="M 55.8 72.072 L 54.92354 72.069467 L 54.047347 72.061868 L 53.171688 72.049206 L 52.29683 72.031485 L 51.423039 72.00871 L 50.550581 71.980888 L 49.679722 71.948028 L 48.810727 71.910139 L 47.943861 71.867232 L 47.079389 71.819323 L 46.217572 71.766423 L 45.358675 71.708551 L 44.502958 71.645723 L 43.650682 71.577959 L 42.802108 71.505278 L 41.957492 71.427705 L 41.117093 71.345261 L 40.281167 71.257972 L 39.449967 71.165865 L 38.623748 71.068968 L 37.802762 70.96731 L 36.987257 70.860922 L 36.177483 70.749837 L 35.373686 70.634088 L 34.576111 70.513711 L 33.785001 70.388743 L 33.000597 70.259221 L 32.223138 70.125184 L 31.452861 69.986675 L 30.69 69.843735 L 29.934788 69.696407 L 29.187455 69.544736 L 28.448228 69.388769 L 27.717332 69.228553 L 26.994991 69.064137 L 26.281425 68.895571 L 25.57685 68.722906 L 24.881481 68.546195 L 24.19553 68.365492 L 23.519206 68.180851 L 22.852716 67.99233 L 22.196261 67.799985 L 21.550042 67.603875 L 20.914257 67.40406 L 20.289097 67.2006 L 19.674755 66.993558 L 19.071417 66.782997 L 18.479267 66.56898 L 17.898485 66.351574 L 17.329248 66.130844 L 16.77173 65.906857 L 16.2261 65.679682 L 15.692525 65.449387 L 15.171167 65.216044 L 14.662184 64.979723 L 14.165733 64.740496 L 13.681964 64.498436 L 13.211025 64.253617 L 12.753058 64.006113 L 12.308204 63.756 L 11.876598 63.503354 L 11.458372 63.248251 L 11.053652 62.99077 L 10.662563 62.730989 L 10.285223 62.468987 L 9.921747 62.204844 L 9.572246 61.93864 L 9.236827 61.670457 L 8.915591 61.400376 L 8.608637 61.128479 L 8.316057 60.85485 L 8.037942 60.579571 L 7.774375 60.302726 L 7.525438 60.024401 L 7.291205 59.744678 L 7.071749 59.463645 L 6.867135 59.181386 L 6.677427 58.897987 L 6.502683 58.613535 L 6.342955 58.328116 L 6.198292 58.041818 L 6.068738 57.754727 L 5.954332 57.466931 L 5.85511 57.178517 L 5.771102 56.889574 L 5.702333 56.60019 L 5.648825 56.310452 L 5.610593 56.020448 L 5.587649 55.730268 L 5.58 55.44 " style="fill:none;stroke:#000000;stroke-linecap:square;stroke-width:3;"/>
            </g>
        </g>
    </g>
    <defs>
        <clipPath id="p6cf7aed1da">
            <rect height="110.88" width="111.6" x="0" y="-0"/>
        </clipPath>
    </defs>
</svg>
