<svg width="96" height="96" xmlns="http://www.w3.org/2000/svg" xmlns:xlink="http://www.w3.org/1999/xlink" xml:space="preserve" overflow="hidden"><g transform="translate(-669 -336)"><path d="M679.937 411.994C679.972 412.006 680.008 412.015 680.045 412.021L742 412.021 755.6 382.813C756.571 380.786 755.715 378.356 753.689 377.385 753.283 377.191 752.847 377.065 752.4 377.013L748 377.013 748 368.013C747.993 365.807 746.206 364.02 744 364.013L714.28 364.013C714.099 364.013 713.921 363.959 713.77 363.859L703 356.706C702.342 356.281 701.583 356.039 700.8 356.006L682 356.006C679.794 356.013 678.007 357.8 678 360.006L678 410C678.003 411.078 678.859 411.96 679.937 411.994ZM752.293 379.011C753.421 379.211 754.173 380.288 753.973 381.416 753.942 381.589 753.889 381.759 753.815 381.919L753.802 381.944 753.791 381.969 740.731 410.015 740.722 410.021 682.1 410.021C682.094 410.021 682.09 410.016 682.09 410.011 682.09 410.009 682.091 410.008 682.091 410.007L694.43 380.019C694.718 379.411 695.327 379.02 696 379.011ZM680 360.006C680 358.901 680.895 358.006 682 358.006L700.8 358.006C701.213 358.04 701.61 358.18 701.953 358.411L712.663 365.52C713.142 365.838 713.705 366.008 714.28 366.008L744 366.008C745.105 366.008 746 366.903 746 368.008L746 377 697 377C696.947 377 696.9 377.009 696.844 377.011L696 377.011C694.534 377.018 693.207 377.877 692.6 379.211L680.019 409.785C680.017 409.79 680.012 409.793 680.006 409.791 680.003 409.79 680.001 409.788 680 409.785Z"/></g></svg>