<?xml version="1.0" encoding="utf-8" standalone="no"?>
<svg height="110.88pt" version="1.1" viewBox="0 0 111.6 110.88" width="111.6pt" xmlns="http://www.w3.org/2000/svg" xmlns:xlink="http://www.w3.org/1999/xlink">
    <defs>
        <style type="text/css">
            *{stroke-linecap:butt;stroke-linejoin:round;}
        </style>
    </defs>
    <g id="figure_1">
        <g id="patch_1">
            <path d="M 0 110.88 L 111.6 110.88 L 111.6 0 L 0 0 z" style="fill:none;"/>
        </g>
        <g id="axes_1">
            <g id="LineCollection_1">
                <path clip-path="url(#pe3d62e1f29)" d="M 55.8 88.704 L 55.8 110.88 " style="fill:none;stroke:#000000;stroke-width:3;"/>
            </g>
            <g id="patch_2">
                <path clip-path="url(#pe3d62e1f29)" d="M 55.8 72.072 C 69.1185 72.072 81.893301 70.319548 91.310903 67.2006 C 100.728504 64.081652 106.02 59.850858 106.02 55.44 C 106.02 51.029142 100.728504 46.798348 91.310903 43.6794 C 81.893301 40.560452 69.1185 38.808 55.8 38.808 C 42.4815 38.808 29.706699 40.560452 20.289097 43.6794 C 10.871496 46.798348 5.58 51.029142 5.58 55.44 C 5.58 59.850858 10.871496 64.081652 20.289097 67.2006 C 29.706699 70.319548 42.4815 72.072 55.8 72.072 z" style="fill:#c0c0c0;"/>
            </g>
            <g id="LineCollection_2">
                <path clip-path="url(#pe3d62e1f29)" d="M 55.8 55.44 L 55.8 -0 " style="fill:none;stroke:#000000;stroke-width:3;"/>
            </g>
            <g id="PolyCollection_1">
                <defs>
                    <path d="M 39.06 -38.808 L 39.06 -38.808 L 55.8 -30.492 L 55.8 -47.124 L 55.8 -47.124 L 39.06 -38.808 z" id="m17a2a2a025" style="stroke:#000000;"/>
                </defs>
                <g clip-path="url(#pe3d62e1f29)">
                    <use style="stroke:#000000;" x="0" xlink:href="#m17a2a2a025" y="110.88"/>
                </g>
            </g>
            <g id="PathCollection_1">
                <defs>
                    <path d="M 0 3.162278 C 0.838646 3.162278 1.643056 2.82908 2.236068 2.236068 C 2.82908 1.643056 3.162278 0.838646 3.162278 0 C 3.162278 -0.838646 2.82908 -1.643056 2.236068 -2.236068 C 1.643056 -2.82908 0.838646 -3.162278 0 -3.162278 C -0.838646 -3.162278 -1.643056 -2.82908 -2.236068 -2.236068 C -2.82908 -1.643056 -3.162278 -0.838646 -3.162278 0 C -3.162278 0.838646 -2.82908 1.643056 -2.236068 2.236068 C -1.643056 2.82908 -0.838646 3.162278 0 3.162278 z" id="m47c0c44e77" style="stroke:#000000;"/>
                </defs>
                <g clip-path="url(#pe3d62e1f29)">
                    <use style="stroke:#000000;" x="55.8" xlink:href="#m47c0c44e77" y="55.44"/>
                    <use style="stroke:#000000;" x="54.92354" xlink:href="#m47c0c44e77" y="38.810533"/>
                </g>
            </g>
            <g id="line2d_1">
                <path clip-path="url(#pe3d62e1f29)" d="M 55.8 72.072 L 61.920278 71.948028 L 67.949318 71.577959 L 73.797238 70.96731 L 78.599403 70.259221 L 83.151772 69.388769 L 87.40447 68.365492 L 91.310903 67.2006 L 94.82827 65.906857 L 97.434267 64.740496 L 99.723402 63.503354 L 101.678253 62.204844 L 103.283943 60.85485 L 104.308795 59.744678 L 105.097317 58.613535 L 105.645668 57.466931 L 105.951175 56.310452 L 106.012351 55.149732 L 105.828898 53.990426 L 105.401708 52.838182 L 104.732865 51.698614 L 103.825625 50.577274 L 102.684409 49.479624 L 100.937437 48.149011 L 98.846942 46.873887 L 96.428833 45.663956 L 93.701515 44.528426 L 90.049958 43.276125 L 86.02315 42.157094 L 81.665212 41.183593 L 77.023889 40.366289 L 72.150033 39.714135 L 67.097042 39.234277 L 61.049419 38.899112 L 55.8 38.808 L 55.8 38.808 " style="fill:none;stroke:#000000;stroke-linecap:square;stroke-width:3;"/>
            </g>
        </g>
    </g>
    <defs>
        <clipPath id="pe3d62e1f29">
            <rect height="110.88" width="111.6" x="0" y="-0"/>
        </clipPath>
    </defs>
</svg>
