<?xml version="1.0" encoding="utf-8" standalone="no"?>
<svg height="110.88pt" version="1.1" viewBox="0 0 111.6 110.88" width="111.6pt" xmlns="http://www.w3.org/2000/svg" xmlns:xlink="http://www.w3.org/1999/xlink">
    <defs>
        <style type="text/css">
            *{stroke-linecap:butt;stroke-linejoin:round;}
        </style>
    </defs>
    <g id="figure_1">
        <g id="patch_1">
            <path d="M 0 110.88 L 111.6 110.88 L 111.6 0 L 0 0 z" style="fill:none;"/>
        </g>
        <g id="axes_1">
            <g id="line2d_1">
                <path clip-path="url(#p19c2ae8e28)" d="M 89.28 55.44 L 89.152598 53.766176 L 88.771364 52.10509 L 88.139197 50.469386 L 87.260909 48.87151 L 86.143185 47.323625 L 84.794531 45.83751 L 83.22521 44.424476 L 81.447168 43.095277 L 79.473935 41.860029 L 76.869647 40.514928 L 74.034515 39.333349 L 70.999602 38.328238 L 67.798159 37.510607 L 64.465262 36.889414 L 61.037426 36.471466 L 57.552208 36.26134 L 54.047792 36.26134 L 50.562574 36.471466 L 47.134738 36.889414 L 43.801841 37.510607 L 40.600398 38.328238 L 37.565485 39.333349 L 34.730353 40.514928 L 32.126065 41.860029 L 29.781153 43.353915 L 28.043822 44.700712 L 26.517732 46.129241 L 25.214498 47.628631 L 24.144038 49.18747 L 23.314499 50.793895 L 22.732194 52.435679 L 22.401556 54.100328 L 22.325099 55.104827 L 22.325099 55.104827 " style="fill:none;stroke:#808080;stroke-dasharray:1,1.65;stroke-dashoffset:0;"/>
            </g>
            <g id="line2d_2">
                <path clip-path="url(#p19c2ae8e28)" d="M 22.32 55.44 L 22.447402 57.113824 L 22.828636 58.77491 L 23.460803 60.410614 L 24.339091 62.00849 L 25.456815 63.556375 L 26.805469 65.04249 L 28.37479 66.455524 L 30.152832 67.784723 L 32.126065 69.019971 L 34.730353 70.365072 L 37.565485 71.546651 L 40.600398 72.551762 L 43.801841 73.369393 L 47.134738 73.990586 L 50.562574 74.408534 L 54.047792 74.61866 L 57.552208 74.61866 L 61.037426 74.408534 L 64.465262 73.990586 L 67.798159 73.369393 L 70.999602 72.551762 L 74.034515 71.546651 L 76.869647 70.365072 L 79.473935 69.019971 L 81.818847 67.526085 L 83.556178 66.179288 L 85.082268 64.750759 L 86.385502 63.251369 L 87.455962 61.69253 L 88.285501 60.086105 L 88.867806 58.444321 L 89.198444 56.779672 L 89.28 55.44 L 89.28 55.44 " style="fill:none;stroke:#808080;stroke-linecap:square;"/>
            </g>
            <g id="line2d_3">
                <path clip-path="url(#p19c2ae8e28)" d="M 55.8 88.704 L 57.484693 88.57742 L 59.156565 88.198645 L 60.802891 87.570557 L 62.411142 86.697935 L 63.969079 85.587422 L 65.464844 84.247469 L 66.887053 82.688274 L 68.224883 80.921702 L 69.468153 78.9612 L 70.821988 76.373713 L 72.01124 73.556873 L 73.022877 70.54154 L 73.845817 67.360751 L 74.471044 64.049357 L 74.891706 60.643636 L 75.103196 57.180903 L 75.103196 53.699097 L 74.891706 50.236364 L 74.471044 46.830643 L 73.845817 43.519249 L 73.022877 40.33846 L 72.01124 37.323127 L 70.821988 34.506287 L 69.468153 31.9188 L 67.964566 29.589017 L 66.609024 27.862894 L 65.171218 26.34665 L 63.662092 25.051824 L 62.093131 23.98827 L 60.476275 23.164083 L 58.823829 22.585535 L 57.148371 22.257029 L 56.13735 22.181066 L 56.13735 22.181066 " style="fill:none;stroke:#808080;stroke-dasharray:1,1.65;stroke-dashoffset:0;"/>
            </g>
            <g id="line2d_4">
                <path clip-path="url(#p19c2ae8e28)" d="M 55.8 22.176 L 54.115307 22.30258 L 52.443435 22.681355 L 50.797109 23.309443 L 49.188858 24.182065 L 47.630921 25.292578 L 46.135156 26.632531 L 44.712947 28.191726 L 43.375117 29.958298 L 42.131847 31.9188 L 40.778012 34.506287 L 39.58876 37.323127 L 38.577123 40.33846 L 37.754183 43.519249 L 37.128956 46.830643 L 36.708294 50.236364 L 36.496804 53.699097 L 36.496804 57.180903 L 36.708294 60.643636 L 37.128956 64.049357 L 37.754183 67.360751 L 38.577123 70.54154 L 39.58876 73.556873 L 40.778012 76.373713 L 42.131847 78.9612 L 43.635434 81.290983 L 44.990976 83.017106 L 46.428782 84.53335 L 47.937908 85.828176 L 49.506869 86.89173 L 51.123725 87.715917 L 52.776171 88.294465 L 54.451629 88.622971 L 55.8 88.704 L 55.8 88.704 " style="fill:none;stroke:#808080;stroke-linecap:square;"/>
            </g>
            <g id="line2d_5">
                <path clip-path="url(#p19c2ae8e28)" d="M 89.28 55.44 L 89.152598 52.540851 L 88.771364 49.663767 L 88.139197 46.830643 L 87.260909 44.063042 L 86.143185 41.382026 L 84.794531 38.808 L 83.22521 36.360553 L 81.447168 34.058313 L 79.473935 31.9188 L 77.320529 29.958298 L 75.003339 28.191726 L 72.54 26.632531 L 69.949259 25.292578 L 67.250834 24.182065 L 64.465262 23.309443 L 61.613741 22.681355 L 58.717974 22.30258 L 55.8 22.176 L 52.882026 22.30258 L 49.986259 22.681355 L 47.134738 23.309443 L 44.349166 24.182065 L 41.650741 25.292578 L 39.06 26.632531 L 36.596661 28.191726 L 34.279471 29.958298 L 32.126065 31.9188 L 30.152832 34.058313 L 28.37479 36.360553 L 26.805469 38.808 L 25.456815 41.382026 L 24.339091 44.063042 L 23.460803 46.830643 L 22.828636 49.663767 L 22.447402 52.540851 L 22.32 55.44 L 22.447402 58.339149 L 22.828636 61.216233 L 23.460803 64.049357 L 24.339091 66.816958 L 25.456815 69.497974 L 26.805469 72.072 L 28.37479 74.519447 L 30.152832 76.821687 L 32.126065 78.9612 L 34.279471 80.921702 L 36.596661 82.688274 L 39.06 84.247469 L 41.650741 85.587422 L 44.349166 86.697935 L 47.134738 87.570557 L 49.986259 88.198645 L 52.882026 88.57742 L 55.8 88.704 L 58.717974 88.57742 L 61.613741 88.198645 L 64.465262 87.570557 L 67.250834 86.697935 L 69.949259 85.587422 L 72.54 84.247469 L 75.003339 82.688274 L 77.320529 80.921702 L 79.473935 78.9612 L 81.447168 76.821687 L 83.22521 74.519447 L 84.794531 72.072 L 86.143185 69.497974 L 87.260909 66.816958 L 88.139197 64.049357 L 88.771364 61.216233 L 89.152598 58.339149 L 89.28 55.44 L 89.28 55.44 " style="fill:none;stroke:#808080;stroke-linecap:square;"/>
            </g>
            <g id="PolyCollection_1">
                <path clip-path="url(#p19c2ae8e28)" d="M 55.8 88.704 L 55.8 55.44 L 55.46265 55.775173 L 55.125404 56.110244 L 54.788362 56.445111 L 54.451629 56.779672 L 54.115307 57.113824 L 53.779498 57.447467 L 53.444304 57.780498 L 53.109828 58.112817 L 52.776171 58.444321 L 52.443435 58.77491 L 52.111722 59.104483 L 51.781132 59.43294 L 51.451767 59.76018 L 51.123725 60.086105 L 50.797109 60.410614 L 50.472016 60.73361 L 50.148546 61.054993 L 49.826798 61.374665 L 49.506869 61.69253 L 49.188858 62.00849 L 48.87286 62.322449 L 48.558972 62.634312 L 48.24729 62.943983 L 47.937908 63.251369 L 47.630921 63.556375 L 47.326423 63.858909 L 47.024506 64.158878 L 46.725262 64.456192 L 46.428782 64.750759 L 46.135156 65.04249 L 45.844475 65.331296 L 45.556826 65.617089 L 45.272298 65.899781 L 44.990976 66.179288 L 44.712947 66.455524 L 44.438295 66.728404 L 44.167104 66.997845 L 43.899456 67.263766 L 43.635434 67.526085 L 43.375117 67.784723 L 43.118584 68.0396 L 42.865915 68.290639 L 42.617185 68.537764 L 42.372471 68.7809 L 42.131847 69.019971 L 41.895387 69.254906 L 41.663162 69.485633 L 41.435243 69.712081 L 41.2117 69.934182 L 40.992601 70.151868 L 40.778012 70.365072 L 40.567999 70.57373 L 40.362626 70.777778 L 40.161955 70.977155 L 39.966047 71.171798 L 39.774963 71.361649 L 39.58876 71.546651 L 39.407496 71.726746 L 39.231224 71.90188 L 39.06 72.072 L 56.13735 88.698934 L 56.474596 88.683736 L 56.811638 88.658413 L 57.148371 88.622971 L 57.484693 88.57742 L 57.820502 88.521776 L 58.155696 88.456055 L 58.490172 88.380277 L 58.823829 88.294465 L 59.156565 88.198645 L 59.488278 88.092847 L 59.818868 87.977102 L 60.148233 87.851446 L 60.476275 87.715917 L 60.802891 87.570557 L 61.127984 87.415409 L 61.451454 87.250521 L 61.773202 87.075944 L 62.093131 86.89173 L 62.411142 86.697935 L 62.72714 86.494619 L 63.041028 86.281844 L 63.35271 86.059673 L 63.662092 85.828176 L 63.969079 85.587422 L 64.273577 85.337485 L 64.575494 85.078441 L 64.874738 84.810369 L 65.171218 84.53335 L 65.464844 84.247469 L 65.755525 83.952813 L 66.043174 83.649472 L 66.327702 83.337538 L 66.609024 83.017106 L 66.887053 82.688274 L 67.161705 82.351141 L 67.432896 82.005812 L 67.700544 81.65239 L 67.964566 81.290983 L 68.224883 80.921702 L 68.224883 80.921702 L 68.224883 80.921702 L 67.964566 80.387828 L 67.700544 79.846355 L 67.432896 79.297447 L 67.161705 78.741272 L 66.887053 78.177999 L 66.609024 77.6078 L 66.327702 77.030848 L 66.043174 76.44732 L 65.755525 75.857393 L 65.464844 75.261246 L 65.171218 74.659061 L 64.874738 74.051022 L 64.575494 73.437315 L 64.273577 72.818124 L 63.969079 72.193641 L 63.662092 71.564054 L 63.35271 70.929555 L 63.041028 70.290339 L 62.72714 69.646598 L 62.411142 68.998531 L 62.093131 68.346333 L 61.773202 67.690204 L 61.451454 67.030343 L 61.127984 66.366952 L 60.802891 65.700232 L 60.476275 65.030387 L 60.148233 64.35762 L 59.818868 63.682137 L 59.488278 63.004144 L 59.156565 62.323846 L 58.823829 61.641452 L 58.490172 60.957168 L 58.155696 60.271204 L 57.820502 59.583769 L 57.484693 58.895071 L 57.148371 58.20532 L 56.811638 57.514728 L 56.474596 56.823503 L 56.13735 56.131857 L 39.06 72.072 L 39.231224 72.572227 L 39.407496 73.067234 L 39.58876 73.556873 L 39.774963 74.040993 L 39.966047 74.519447 L 40.161955 74.992089 L 40.362626 75.458775 L 40.567999 75.919363 L 40.778012 76.373713 L 40.992601 76.821687 L 41.2117 77.263148 L 41.435243 77.69796 L 41.663162 78.125993 L 41.895387 78.547116 L 42.131847 78.9612 L 42.372471 79.368119 L 42.617185 79.76775 L 42.865915 80.159969 L 43.118584 80.544659 L 43.375117 80.921702 L 43.635434 81.290983 L 43.899456 81.65239 L 44.167104 82.005812 L 44.438295 82.351141 L 44.712947 82.688274 L 44.990976 83.017106 L 45.272298 83.337538 L 45.556826 83.649472 L 45.844475 83.952813 L 46.135156 84.247469 L 46.428782 84.53335 L 46.725262 84.810369 L 47.024506 85.078441 L 47.326423 85.337485 L 47.630921 85.587422 L 47.937908 85.828176 L 48.24729 86.059673 L 48.558972 86.281844 L 48.87286 86.494619 L 49.188858 86.697935 L 49.506869 86.89173 L 49.826798 87.075944 L 50.148546 87.250521 L 50.472016 87.415409 L 50.797109 87.570557 L 51.123725 87.715917 L 51.451767 87.851446 L 51.781132 87.977102 L 52.111722 88.092847 L 52.443435 88.198645 L 52.776171 88.294465 L 53.109828 88.380277 L 53.444304 88.456055 L 53.779498 88.521776 L 54.115307 88.57742 L 54.451629 88.622971 L 54.788362 88.658413 L 55.125404 88.683736 L 55.46265 88.698934 L 55.8 88.704 z" style="fill:#4169e1;fill-opacity:0.5;"/>
            </g>
            <g id="PolyCollection_2">
                <path clip-path="url(#p19c2ae8e28)" d="M 39.06 72.072 L 39.06 72.072 L 39.568574 72.237053 L 40.082092 72.39699 L 40.600398 72.551762 L 41.123334 72.701321 L 41.650741 72.845622 L 42.182457 72.984622 L 42.718322 73.118277 L 43.258171 73.246547 L 43.801841 73.369393 L 44.349166 73.486777 L 44.899978 73.598665 L 45.454111 73.705021 L 46.011395 73.805813 L 46.571661 73.901011 L 47.134738 73.990586 L 47.700455 74.074509 L 48.268639 74.152757 L 48.839117 74.225304 L 49.411715 74.29213 L 49.986259 74.353213 L 50.562574 74.408534 L 51.140485 74.458078 L 51.719814 74.501828 L 52.300387 74.539772 L 52.882026 74.571899 L 53.464553 74.598197 L 54.047792 74.61866 L 54.631565 74.63328 L 55.215693 74.642054 L 55.8 74.644979 L 56.384307 74.642054 L 56.968435 74.63328 L 57.552208 74.61866 L 58.135447 74.598197 L 58.717974 74.571899 L 59.299613 74.539772 L 59.880186 74.501828 L 60.459515 74.458078 L 61.037426 74.408534 L 61.613741 74.353213 L 62.188285 74.29213 L 62.760883 74.225304 L 63.331361 74.152757 L 63.899545 74.074509 L 64.465262 73.990586 L 65.028339 73.901011 L 65.588605 73.805813 L 66.145889 73.705021 L 66.700022 73.598665 L 67.250834 73.486777 L 67.798159 73.369393 L 68.341829 73.246547 L 68.881678 73.118277 L 69.417543 72.984622 L 69.949259 72.845622 L 70.476666 72.701321 L 70.999602 72.551762 L 71.517908 72.39699 L 72.031426 72.237053 L 72.54 72.072 L 73.043475 71.90188 L 73.541697 71.726746 L 74.034515 71.546651 L 74.521778 71.361649 L 75.003339 71.171798 L 75.47905 70.977155 L 75.948767 70.777778 L 76.412346 70.57373 L 76.869647 70.365072 L 77.320529 70.151868 L 77.764856 69.934182 L 78.202493 69.712081 L 78.633305 69.485633 L 79.057162 69.254906 L 79.473935 69.019971 L 79.883497 68.7809 L 80.285722 68.537764 L 80.680489 68.290639 L 81.067677 68.0396 L 81.447168 67.784723 L 81.818847 67.526085 L 82.1826 67.263766 L 82.538317 66.997845 L 82.885889 66.728404 L 83.22521 66.455524 L 83.556178 66.179288 L 83.878691 65.899781 L 84.19265 65.617089 L 84.497961 65.331296 L 84.794531 65.04249 L 85.082268 64.750759 L 85.361085 64.456192 L 85.630898 64.158878 L 85.891625 63.858909 L 86.143185 63.556375 L 86.385502 63.251369 L 86.618502 62.943983 L 86.842115 62.634312 L 87.056273 62.322449 L 87.260909 62.00849 L 87.455962 61.69253 L 87.641372 61.374665 L 87.817083 61.054993 L 87.983042 60.73361 L 88.139197 60.410614 L 88.285501 60.086105 L 88.42191 59.76018 L 88.548382 59.43294 L 88.664878 59.104483 L 88.771364 58.77491 L 88.867806 58.444321 L 88.954175 58.112817 L 89.030445 57.780498 L 89.096593 57.447467 L 89.152598 57.113824 L 89.198444 56.779672 L 89.234117 56.445111 L 89.259605 56.110244 L 89.274901 55.775173 L 89.274901 55.44 L 89.274901 55.44 L 89.259605 55.104827 L 89.234117 54.769756 L 89.198444 54.434889 L 89.152598 54.100328 L 89.096593 53.766176 L 89.030445 53.432533 L 88.954175 53.099502 L 88.867806 52.767183 L 88.771364 52.435679 L 88.664878 52.10509 L 88.548382 51.775517 L 88.42191 51.44706 L 88.285501 51.11982 L 88.139197 50.793895 L 87.983042 50.469386 L 87.817083 50.14639 L 87.641372 49.825007 L 87.455962 49.505335 L 87.260909 49.18747 L 87.056273 48.87151 L 86.842115 48.557551 L 86.618502 48.245688 L 86.385502 47.936017 L 86.143185 47.628631 L 85.891625 47.323625 L 85.630898 47.021091 L 85.361085 46.721122 L 85.082268 46.423808 L 84.794531 46.129241 L 84.497961 45.83751 L 84.19265 45.548704 L 83.878691 45.262911 L 83.556178 44.980219 L 83.22521 44.700712 L 82.885889 44.424476 L 82.538317 44.151596 L 82.1826 43.882155 L 81.818847 43.616234 L 81.447168 43.353915 L 81.067677 43.095277 L 80.680489 42.8404 L 80.285722 42.589361 L 79.883497 42.342236 L 79.473935 42.0991 L 79.057162 41.860029 L 78.633305 41.625094 L 78.202493 41.394367 L 77.764856 41.167919 L 77.320529 40.945818 L 76.869647 40.728132 L 76.412346 40.514928 L 75.948767 40.30627 L 75.47905 40.102222 L 75.003339 39.902845 L 74.521778 39.708202 L 74.034515 39.518351 L 73.541697 39.333349 L 73.043475 39.153254 L 72.54 38.97812 L 72.031426 39.944295 L 71.517908 40.434537 L 70.999602 40.92935 L 70.476666 41.428583 L 69.949259 41.932084 L 69.417543 42.439699 L 68.881678 42.951275 L 68.341829 43.466654 L 67.798159 43.985681 L 67.250834 44.508197 L 66.700022 45.034043 L 66.145889 45.563059 L 65.588605 46.095083 L 65.028339 46.629954 L 64.465262 47.167508 L 63.899545 47.707583 L 63.331361 48.250012 L 62.760883 48.794632 L 62.188285 49.341276 L 61.613741 49.889778 L 61.037426 50.439971 L 60.459515 50.991686 L 59.880186 51.544757 L 59.299613 52.099014 L 58.717974 52.654289 L 58.135447 53.210412 L 57.552208 53.767214 L 56.968435 54.324526 L 56.384307 54.882178 L 55.8 55.44 L 55.215693 56.020537 L 54.631565 56.600897 L 54.047792 57.180903 L 53.464553 57.760379 L 52.882026 58.339149 L 52.300387 58.917035 L 51.719814 59.493862 L 51.140485 60.069454 L 50.562574 60.643636 L 49.986259 61.216233 L 49.411715 61.78707 L 48.839117 62.355974 L 48.268639 62.922772 L 47.700455 63.48729 L 47.134738 64.049357 L 46.571661 64.608801 L 46.011395 65.165452 L 45.454111 65.719141 L 44.899978 66.269699 L 44.349166 66.816958 L 43.801841 67.360751 L 43.258171 67.900914 L 42.718322 68.43728 L 42.182457 68.969688 L 41.650741 69.497974 L 41.123334 70.021978 L 40.600398 70.54154 L 40.082092 71.056502 L 39.568574 71.566707 L 39.06 72.072 z" style="fill:#d2691e;fill-opacity:0.5;"/>
            </g>
            <g id="line2d_6">
                <path clip-path="url(#p19c2ae8e28)" d="M 55.8 88.704 L 55.46265 88.698934 L 55.125404 88.683736 L 54.788362 88.658413 L 54.451629 88.622971 L 54.115307 88.57742 L 53.779498 88.521776 L 53.444304 88.456055 L 53.109828 88.380277 L 52.776171 88.294465 L 52.443435 88.198645 L 52.111722 88.092847 L 51.781132 87.977102 L 51.451767 87.851446 L 51.123725 87.715917 L 50.797109 87.570557 L 50.472016 87.415409 L 50.148546 87.250521 L 49.826798 87.075944 L 49.506869 86.89173 L 49.188858 86.697935 L 48.87286 86.494619 L 48.558972 86.281844 L 48.24729 86.059673 L 47.937908 85.828176 L 47.630921 85.587422 L 47.326423 85.337485 L 47.024506 85.078441 L 46.725262 84.810369 L 46.428782 84.53335 L 46.135156 84.247469 L 45.844475 83.952813 L 45.556826 83.649472 L 45.272298 83.337538 L 44.990976 83.017106 L 44.712947 82.688274 L 44.438295 82.351141 L 44.167104 82.005812 L 43.899456 81.65239 L 43.635434 81.290983 L 43.375117 80.921702 L 43.118584 80.544659 L 42.865915 80.159969 L 42.617185 79.76775 L 42.372471 79.368119 L 42.131847 78.9612 L 41.895387 78.547116 L 41.663162 78.125993 L 41.435243 77.69796 L 41.2117 77.263148 L 40.992601 76.821687 L 40.778012 76.373713 L 40.567999 75.919363 L 40.362626 75.458775 L 40.161955 74.992089 L 39.966047 74.519447 L 39.774963 74.040993 L 39.58876 73.556873 L 39.407496 73.067234 L 39.231224 72.572227 L 39.06 72.072 " style="fill:none;stroke:#000000;stroke-linecap:square;stroke-width:3;"/>
            </g>
            <g id="line2d_7">
                <path clip-path="url(#p19c2ae8e28)" d="M 68.224883 80.921702 L 67.964566 81.290983 L 67.700544 81.65239 L 67.432896 82.005812 L 67.161705 82.351141 L 66.887053 82.688274 L 66.609024 83.017106 L 66.327702 83.337538 L 66.043174 83.649472 L 65.755525 83.952813 L 65.464844 84.247469 L 65.171218 84.53335 L 64.874738 84.810369 L 64.575494 85.078441 L 64.273577 85.337485 L 63.969079 85.587422 L 63.662092 85.828176 L 63.35271 86.059673 L 63.041028 86.281844 L 62.72714 86.494619 L 62.411142 86.697935 L 62.093131 86.89173 L 61.773202 87.075944 L 61.451454 87.250521 L 61.127984 87.415409 L 60.802891 87.570557 L 60.476275 87.715917 L 60.148233 87.851446 L 59.818868 87.977102 L 59.488278 88.092847 L 59.156565 88.198645 L 58.823829 88.294465 L 58.490172 88.380277 L 58.155696 88.456055 L 57.820502 88.521776 L 57.484693 88.57742 L 57.148371 88.622971 L 56.811638 88.658413 L 56.474596 88.683736 L 56.13735 88.698934 " style="fill:none;stroke:#000000;stroke-dasharray:3,4.95;stroke-dashoffset:0;stroke-width:3;"/>
            </g>
            <g id="line2d_8">
                <path clip-path="url(#p19c2ae8e28)" d="M 39.06 72.072 L 39.568574 72.237053 L 40.082092 72.39699 L 40.600398 72.551762 L 41.123334 72.701321 L 41.650741 72.845622 L 42.182457 72.984622 L 42.718322 73.118277 L 43.258171 73.246547 L 43.801841 73.369393 L 44.349166 73.486777 L 44.899978 73.598665 L 45.454111 73.705021 L 46.011395 73.805813 L 46.571661 73.901011 L 47.134738 73.990586 L 47.700455 74.074509 L 48.268639 74.152757 L 48.839117 74.225304 L 49.411715 74.29213 L 49.986259 74.353213 L 50.562574 74.408534 L 51.140485 74.458078 L 51.719814 74.501828 L 52.300387 74.539772 L 52.882026 74.571899 L 53.464553 74.598197 L 54.047792 74.61866 L 54.631565 74.63328 L 55.215693 74.642054 L 55.8 74.644979 L 56.384307 74.642054 L 56.968435 74.63328 L 57.552208 74.61866 L 58.135447 74.598197 L 58.717974 74.571899 L 59.299613 74.539772 L 59.880186 74.501828 L 60.459515 74.458078 L 61.037426 74.408534 L 61.613741 74.353213 L 62.188285 74.29213 L 62.760883 74.225304 L 63.331361 74.152757 L 63.899545 74.074509 L 64.465262 73.990586 L 65.028339 73.901011 L 65.588605 73.805813 L 66.145889 73.705021 L 66.700022 73.598665 L 67.250834 73.486777 L 67.798159 73.369393 L 68.341829 73.246547 L 68.881678 73.118277 L 69.417543 72.984622 L 69.949259 72.845622 L 70.476666 72.701321 L 70.999602 72.551762 L 71.517908 72.39699 L 72.031426 72.237053 L 72.54 72.072 L 73.043475 71.90188 L 73.541697 71.726746 L 74.034515 71.546651 L 74.521778 71.361649 L 75.003339 71.171798 L 75.47905 70.977155 L 75.948767 70.777778 L 76.412346 70.57373 L 76.869647 70.365072 L 77.320529 70.151868 L 77.764856 69.934182 L 78.202493 69.712081 L 78.633305 69.485633 L 79.057162 69.254906 L 79.473935 69.019971 L 79.883497 68.7809 L 80.285722 68.537764 L 80.680489 68.290639 L 81.067677 68.0396 L 81.447168 67.784723 L 81.818847 67.526085 L 82.1826 67.263766 L 82.538317 66.997845 L 82.885889 66.728404 L 83.22521 66.455524 L 83.556178 66.179288 L 83.878691 65.899781 L 84.19265 65.617089 L 84.497961 65.331296 L 84.794531 65.04249 L 85.082268 64.750759 L 85.361085 64.456192 L 85.630898 64.158878 L 85.891625 63.858909 L 86.143185 63.556375 L 86.385502 63.251369 L 86.618502 62.943983 L 86.842115 62.634312 L 87.056273 62.322449 L 87.260909 62.00849 L 87.455962 61.69253 L 87.641372 61.374665 L 87.817083 61.054993 L 87.983042 60.73361 L 88.139197 60.410614 L 88.285501 60.086105 L 88.42191 59.76018 L 88.548382 59.43294 L 88.664878 59.104483 L 88.771364 58.77491 L 88.867806 58.444321 L 88.954175 58.112817 L 89.030445 57.780498 L 89.096593 57.447467 L 89.152598 57.113824 L 89.198444 56.779672 L 89.234117 56.445111 L 89.259605 56.110244 L 89.274901 55.775173 " style="fill:none;stroke:#000000;stroke-linecap:square;stroke-width:3;"/>
            </g>
            <g id="line2d_9">
                <path clip-path="url(#p19c2ae8e28)" d="M 89.28 55.44 L 89.274901 55.104827 L 89.259605 54.769756 L 89.234117 54.434889 L 89.198444 54.100328 L 89.152598 53.766176 L 89.096593 53.432533 L 89.030445 53.099502 L 88.954175 52.767183 L 88.867806 52.435679 L 88.771364 52.10509 L 88.664878 51.775517 L 88.548382 51.44706 L 88.42191 51.11982 L 88.285501 50.793895 L 88.139197 50.469386 L 87.983042 50.14639 L 87.817083 49.825007 L 87.641372 49.505335 L 87.455962 49.18747 L 87.260909 48.87151 L 87.056273 48.557551 L 86.842115 48.245688 L 86.618502 47.936017 L 86.385502 47.628631 L 86.143185 47.323625 L 85.891625 47.021091 L 85.630898 46.721122 L 85.361085 46.423808 L 85.082268 46.129241 L 84.794531 45.83751 L 84.497961 45.548704 L 84.19265 45.262911 L 83.878691 44.980219 L 83.556178 44.700712 L 83.22521 44.424476 L 82.885889 44.151596 L 82.538317 43.882155 L 82.1826 43.616234 L 81.818847 43.353915 L 81.447168 43.095277 L 81.067677 42.8404 L 80.680489 42.589361 L 80.285722 42.342236 L 79.883497 42.0991 L 79.473935 41.860029 L 79.057162 41.625094 L 78.633305 41.394367 L 78.202493 41.167919 L 77.764856 40.945818 L 77.320529 40.728132 L 76.869647 40.514928 L 76.412346 40.30627 L 75.948767 40.102222 L 75.47905 39.902845 L 75.003339 39.708202 L 74.521778 39.518351 L 74.034515 39.333349 L 73.541697 39.153254 L 73.043475 38.97812 " style="fill:none;stroke:#000000;stroke-dasharray:3,4.95;stroke-dashoffset:0;stroke-width:3;"/>
            </g>
            <g id="PolyCollection_3">
                <defs>
                    <path d="M 47.43 -110.88 L 47.43 -110.88 L 55.8 -110.88 L 64.17 -110.88 L 64.17 -110.88 L 64.17 -110.88 L 55.8 -94.248 L 47.43 -110.88 z" id="m1fab7f56d3"/>
                </defs>
                <g clip-path="url(#p19c2ae8e28)">
                    <use x="0" xlink:href="#m1fab7f56d3" y="110.88"/>
                </g>
            </g>
            <g id="PolyCollection_4">
                <defs>
                    <path d="M 94.86 -55.44 L 94.86 -55.44 L 111.6 -47.124 L 111.6 -63.756 L 111.6 -63.756 L 94.86 -55.44 z" id="m22236743bc"/>
                </defs>
                <g clip-path="url(#p19c2ae8e28)">
                    <use x="0" xlink:href="#m22236743bc" y="110.88"/>
                </g>
            </g>
        </g>
    </g>
    <defs>
        <clipPath id="p19c2ae8e28">
            <rect height="110.88" width="111.6" x="0" y="-0"/>
        </clipPath>
    </defs>
</svg>
