<?xml version="1.0" encoding="utf-8" standalone="no"?>
<svg height="110.88pt" version="1.1" viewBox="0 0 111.6 110.88" width="111.6pt" xmlns="http://www.w3.org/2000/svg" xmlns:xlink="http://www.w3.org/1999/xlink">
    <defs>
        <style type="text/css">
            *{stroke-linecap:butt;stroke-linejoin:round;}
        </style>
    </defs>
    <g id="figure_1">
        <g id="patch_1">
            <path d="M 0 110.88 L 111.6 110.88 L 111.6 0 L 0 0 z" style="fill:none;"/>
        </g>
        <g id="axes_1">
            <g id="LineCollection_1">
                <path clip-path="url(#pcbff00454c)" d="M 55.8 88.704 L 55.8 110.88 " style="fill:none;stroke:#000000;stroke-width:3;"/>
            </g>
            <g id="patch_2">
                <path clip-path="url(#pcbff00454c)" d="M 55.8 72.072 C 69.1185 72.072 81.893301 70.319548 91.310903 67.2006 C 100.728504 64.081652 106.02 59.850858 106.02 55.44 C 106.02 51.029142 100.728504 46.798348 91.310903 43.6794 C 81.893301 40.560452 69.1185 38.808 55.8 38.808 C 42.4815 38.808 29.706699 40.560452 20.289097 43.6794 C 10.871496 46.798348 5.58 51.029142 5.58 55.44 C 5.58 59.850858 10.871496 64.081652 20.289097 67.2006 C 29.706699 70.319548 42.4815 72.072 55.8 72.072 z" style="fill:#c0c0c0;"/>
            </g>
            <g id="LineCollection_2">
                <path clip-path="url(#pcbff00454c)" d="M 55.8 55.44 L 55.8 -0 " style="fill:none;stroke:#000000;stroke-width:3;"/>
            </g>
            <g id="PolyCollection_1">
                <defs>
                    <path d="M 39.06 -38.808 L 39.06 -38.808 L 55.8 -30.492 L 55.8 -47.124 L 55.8 -47.124 L 39.06 -38.808 z" id="m2f1ac0d47e" style="stroke:#000000;"/>
                </defs>
                <g clip-path="url(#pcbff00454c)">
                    <use style="stroke:#000000;" x="0" xlink:href="#m2f1ac0d47e" y="110.88"/>
                </g>
            </g>
            <g id="PathCollection_1">
                <defs>
                    <path d="M 0 3.162278 C 0.838646 3.162278 1.643056 2.82908 2.236068 2.236068 C 2.82908 1.643056 3.162278 0.838646 3.162278 0 C 3.162278 -0.838646 2.82908 -1.643056 2.236068 -2.236068 C 1.643056 -2.82908 0.838646 -3.162278 0 -3.162278 C -0.838646 -3.162278 -1.643056 -2.82908 -2.236068 -2.236068 C -2.82908 -1.643056 -3.162278 -0.838646 -3.162278 0 C -3.162278 0.838646 -2.82908 1.643056 -2.236068 2.236068 C -1.643056 2.82908 -0.838646 3.162278 0 3.162278 z" id="m5ea1392cfd" style="stroke:#000000;"/>
                </defs>
                <g clip-path="url(#pcbff00454c)">
                    <use style="stroke:#000000;" x="55.8" xlink:href="#m5ea1392cfd" y="55.44"/>
                    <use style="stroke:#000000;" x="81.665212" xlink:href="#m5ea1392cfd" y="69.696407"/>
                </g>
            </g>
            <g id="line2d_1">
                <path clip-path="url(#pcbff00454c)" d="M 55.8 55.44 L 81.665212 69.696407 " style="fill:none;stroke:#000000;stroke-dasharray:2,3.3;stroke-dashoffset:0;stroke-width:2;"/>
            </g>
            <g id="line2d_2">
                <path clip-path="url(#pcbff00454c)" d="M 55.8 72.072 L 56.67646 72.069467 L 57.552653 72.061868 L 58.428312 72.049206 L 59.30317 72.031485 L 60.176961 72.00871 L 61.049419 71.980888 L 61.920278 71.948028 L 62.789273 71.910139 L 63.656139 71.867232 L 64.520611 71.819323 L 65.382428 71.766423 L 66.241325 71.708551 L 67.097042 71.645723 L 67.949318 71.577959 L 68.797892 71.505278 L 69.642508 71.427705 L 70.482907 71.345261 L 71.318833 71.257972 L 72.150033 71.165865 L 72.976252 71.068968 L 73.797238 70.96731 L 74.612743 70.860922 L 75.422517 70.749837 L 76.226314 70.634088 L 77.023889 70.513711 L 77.814999 70.388743 L 78.599403 70.259221 L 79.376862 70.125184 L 80.147139 69.986675 L 80.91 69.843735 " style="fill:none;stroke:#000000;stroke-linecap:square;stroke-width:3;"/>
            </g>
        </g>
    </g>
    <defs>
        <clipPath id="pcbff00454c">
            <rect height="110.88" width="111.6" x="0" y="-0"/>
        </clipPath>
    </defs>
</svg>
