<?xml version="1.0" encoding="utf-8" standalone="no"?>
<svg height="110.88pt" version="1.1" viewBox="0 0 111.6 110.88" width="111.6pt" xmlns="http://www.w3.org/2000/svg" xmlns:xlink="http://www.w3.org/1999/xlink">
    <defs>
        <style type="text/css">
            *{stroke-linecap:butt;stroke-linejoin:round;}
        </style>
    </defs>
    <g id="figure_1">
        <g id="patch_1">
            <path d="M 0 110.88 L 111.6 110.88 L 111.6 0 L 0 0 z" style="fill:none;"/>
        </g>
        <g id="axes_1">
            <g id="LineCollection_1">
                <path clip-path="url(#pcb2e41172e)" d="M 55.8 105.336 L 55.8 5.544 " style="fill:none;stroke:#808080;stroke-dasharray:1,1.65;stroke-dashoffset:0;"/>
            </g>
            <g id="LineCollection_2">
                <path clip-path="url(#pcb2e41172e)" d="M 5.58 55.44 L 106.02 55.44 " style="fill:none;stroke:#808080;stroke-dasharray:1,1.65;stroke-dashoffset:0;"/>
            </g>
            <g id="line2d_1">
                <path clip-path="url(#pcb2e41172e)" d="M 106.02 55.44 L 105.897667 53.430493 L 105.531262 51.430775 L 104.922573 49.45059 L 104.074562 47.499585 L 102.991363 45.587265 L 101.678253 43.722947 L 100.141628 41.915712 L 98.388975 40.174367 L 96.428833 38.507395 L 94.270752 36.922916 L 91.925245 35.428651 L 88.747284 33.698727 L 85.318575 32.134268 L 81.665212 30.74718 L 77.814999 29.548018 L 73.797238 28.545911 L 69.642508 27.748483 L 65.382428 27.161805 L 61.049419 26.790341 L 56.67646 26.636918 L 52.29683 26.702705 L 47.943861 26.987199 L 43.650682 27.488236 L 39.449967 28.202003 L 35.373686 29.123068 L 31.452861 30.24442 L 27.717332 31.557526 L 24.19553 33.052392 L 20.914257 34.717641 L 17.898485 36.5406 L 15.692525 38.103232 L 13.681964 39.750328 L 11.876598 41.473862 L 10.285223 43.265438 L 8.915591 45.116326 L 7.774375 47.017511 L 6.867135 48.959729 L 6.198292 50.933519 L 5.771102 52.929264 L 5.587649 54.93724 L 5.587649 54.93724 " style="fill:none;stroke:#808080;stroke-dasharray:1,1.65;stroke-dashoffset:0;"/>
            </g>
            <g id="line2d_2">
                <path clip-path="url(#pcb2e41172e)" d="M 5.58 55.44 L 5.702333 57.449507 L 6.068738 59.449225 L 6.677427 61.42941 L 7.525438 63.380415 L 8.608637 65.292735 L 9.921747 67.157053 L 11.458372 68.964288 L 13.211025 70.705633 L 15.171167 72.372605 L 17.329248 73.957084 L 19.674755 75.451349 L 22.852716 77.181273 L 26.281425 78.745732 L 29.934788 80.13282 L 33.785001 81.331982 L 37.802762 82.334089 L 41.957492 83.131517 L 46.217572 83.718195 L 50.550581 84.089659 L 54.92354 84.243082 L 59.30317 84.177295 L 63.656139 83.892801 L 67.949318 83.391764 L 72.150033 82.677997 L 76.226314 81.756932 L 80.147139 80.63558 L 83.882668 79.322474 L 87.40447 77.827608 L 90.685743 76.162359 L 93.701515 74.3394 L 95.907475 72.776768 L 97.918036 71.129672 L 99.723402 69.406138 L 101.314777 67.614562 L 102.684409 65.763674 L 103.825625 63.862489 L 104.732865 61.920271 L 105.401708 59.946481 L 105.828898 57.950736 L 106.012351 55.94276 L 106.02 55.44 L 106.02 55.44 " style="fill:none;stroke:#808080;stroke-linecap:square;"/>
            </g>
            <g id="line2d_3">
                <path clip-path="url(#pcb2e41172e)" d="M 55.8 105.336 L 57.822556 105.214456 L 59.835259 104.850416 L 61.828302 104.245653 L 63.791976 103.403114 L 65.716713 102.326903 L 67.593138 101.022264 L 69.412108 99.495553 L 71.16476 97.754208 L 72.842557 95.806712 L 74.437325 93.662554 L 75.941293 91.332179 L 77.68245 88.174721 L 79.257068 84.768133 L 80.653163 81.13834 L 81.860111 77.312967 L 82.868726 73.321127 L 83.671332 69.193202 L 84.261819 64.960606 L 84.635695 60.655552 L 84.790115 56.310805 L 84.723901 51.959431 L 84.43756 47.634546 L 83.933269 43.369065 L 83.214867 39.195451 L 82.287822 35.145468 L 81.159188 31.249939 L 79.837555 27.538511 L 78.332982 24.03943 L 76.65692 20.779326 L 74.822124 17.783011 L 73.249344 15.591283 L 71.591553 13.593693 L 69.856827 11.799975 L 68.053618 10.218867 L 66.19071 8.858071 L 64.27718 7.724218 L 62.32235 6.822831 L 60.335744 6.158303 L 58.32704 5.733869 L 56.306024 5.551599 L 56.306024 5.551599 " style="fill:none;stroke:#808080;stroke-dasharray:1,1.65;stroke-dashoffset:0;"/>
            </g>
            <g id="line2d_4">
                <path clip-path="url(#pcb2e41172e)" d="M 55.8 5.544 L 53.777444 5.665544 L 51.764741 6.029584 L 49.771698 6.634347 L 47.808024 7.476886 L 45.883287 8.553097 L 44.006862 9.857736 L 42.187892 11.384447 L 40.43524 13.125792 L 38.757443 15.073288 L 37.162675 17.217446 L 35.658707 19.547821 L 33.91755 22.705279 L 32.342932 26.111867 L 30.946837 29.74166 L 29.739889 33.567033 L 28.731274 37.558873 L 27.928668 41.686798 L 27.338181 45.919394 L 26.964305 50.224448 L 26.809885 54.569195 L 26.876099 58.920569 L 27.16244 63.245454 L 27.666731 67.510935 L 28.385133 71.684549 L 29.312178 75.734532 L 30.440812 79.630061 L 31.762445 83.341489 L 33.267018 86.84057 L 34.94308 90.100674 L 36.777876 93.096989 L 38.350656 95.288717 L 40.008447 97.286307 L 41.743173 99.080025 L 43.546382 100.661133 L 45.40929 102.021929 L 47.32282 103.155782 L 49.27765 104.057169 L 51.264256 104.721697 L 53.27296 105.146131 L 55.293976 105.328401 L 55.8 105.336 L 55.8 105.336 " style="fill:none;stroke:#808080;stroke-linecap:square;"/>
            </g>
            <g id="line2d_5">
                <path clip-path="url(#pcb2e41172e)" d="M 106.02 55.44 L 105.897667 51.959431 L 105.531262 48.495819 L 104.922573 45.066038 L 104.074562 41.686798 L 102.991363 38.374563 L 101.678253 35.145468 L 100.141628 32.015247 L 98.388975 28.999148 L 96.428833 26.111867 L 94.270752 23.367469 L 91.925245 20.779326 L 89.403739 18.360046 L 86.718519 16.121415 L 83.882668 14.074341 L 80.91 12.228796 L 77.814999 10.593772 L 74.612743 9.177234 L 71.318833 7.986084 L 67.949318 7.026124 L 64.520611 6.302032 L 61.049419 5.817336 L 57.552653 5.574395 L 54.047347 5.574395 L 50.550581 5.817336 L 47.079389 6.302032 L 43.650682 7.026124 L 40.281167 7.986084 L 36.987257 9.177234 L 33.785001 10.593772 L 30.69 12.228796 L 27.717332 14.074341 L 24.881481 16.121415 L 22.196261 18.360046 L 19.674755 20.779326 L 17.329248 23.367469 L 15.171167 26.111867 L 13.211025 28.999148 L 11.458372 32.015247 L 9.921747 35.145468 L 8.608637 38.374563 L 7.525438 41.686798 L 6.677427 45.066038 L 6.068738 48.495819 L 5.702333 51.959431 L 5.58 55.44 L 5.702333 58.920569 L 6.068738 62.384181 L 6.677427 65.813962 L 7.525438 69.193202 L 8.608637 72.505437 L 9.921747 75.734532 L 11.458372 78.864753 L 13.211025 81.880852 L 15.171167 84.768133 L 17.329248 87.512531 L 19.674755 90.100674 L 22.196261 92.519954 L 24.881481 94.758585 L 27.717332 96.805659 L 30.69 98.651204 L 33.785001 100.286228 L 36.987257 101.702766 L 40.281167 102.893916 L 43.650682 103.853876 L 47.079389 104.577968 L 50.550581 105.062664 L 54.047347 105.305605 L 57.552653 105.305605 L 61.049419 105.062664 L 64.520611 104.577968 L 67.949318 103.853876 L 71.318833 102.893916 L 74.612743 101.702766 L 77.814999 100.286228 L 80.91 98.651204 L 83.882668 96.805659 L 86.718519 94.758585 L 89.403739 92.519954 L 91.925245 90.100674 L 94.270752 87.512531 L 96.428833 84.768133 L 98.388975 81.880852 L 100.141628 78.864753 L 101.678253 75.734532 L 102.991363 72.505437 L 104.074562 69.193202 L 104.922573 65.813962 L 105.531262 62.384181 L 105.897667 58.920569 L 106.02 55.44 L 106.02 55.44 " style="fill:none;stroke:#808080;stroke-linecap:square;"/>
            </g>
            <g id="line2d_6">
                <path clip-path="url(#pcb2e41172e)" d="M 55.8 55.44 L 81.665212 30.74718 " style="fill:none;stroke:#808080;stroke-dasharray:1,1.65;stroke-dashoffset:0;"/>
            </g>
            <g id="line2d_7">
                <path clip-path="url(#pcb2e41172e)" d="M 30.69 80.388 L 55.8 55.44 " style="fill:none;stroke:#000000;stroke-dasharray:1,1.65;stroke-dashoffset:0;"/>
            </g>
            <g id="PolyCollection_1">
                <path clip-path="url(#pcb2e41172e)" d="M 37.162675 93.662554 L 37.162675 93.662554 L 36.777876 93.096989 L 36.398872 92.519954 L 36.025778 91.931624 L 35.658707 91.332179 L 35.297771 90.7218 L 34.94308 90.100674 L 34.594743 89.46899 L 34.252865 88.826941 L 33.91755 88.174721 L 33.588901 87.512531 L 33.267018 86.84057 L 32.951998 86.159045 L 32.643938 85.468162 L 32.342932 84.768133 L 32.049071 84.05917 L 31.762445 83.341489 L 31.483141 82.615309 L 31.211244 81.880852 L 30.946837 81.13834 L 30.69 80.388 L 55.8 55.44 L 55.8 55.44 L 55.8 55.44 L 30.69 106.937107 L 30.946837 106.410371 L 31.211244 105.868109 L 31.483141 105.310486 L 31.762445 104.737672 L 32.049071 104.149842 L 32.342932 103.547174 L 32.643938 102.929852 L 32.951998 102.298064 L 33.267018 101.652003 L 33.588901 100.991865 L 33.91755 100.317852 L 34.252865 99.630169 L 34.594743 98.929024 L 34.94308 98.214633 L 35.297771 97.487212 L 35.658707 96.746983 L 36.025778 95.994171 L 36.398872 95.229007 L 36.777876 94.451722 L 37.162675 93.662554 z" style="fill:#4169e1;fill-opacity:0.5;"/>
            </g>
            <g id="PolyCollection_2">
                <path clip-path="url(#pcb2e41172e)" d="M 8.608637 65.292735 L 8.608637 65.292735 L 8.915591 65.763674 L 9.236827 66.231468 L 9.572246 66.695975 L 9.921747 67.157053 L 10.285223 67.614562 L 10.662563 68.068363 L 11.053652 68.518317 L 11.458372 68.964288 L 11.876598 69.406138 L 12.308204 69.843735 L 12.753058 70.276943 L 13.211025 70.705633 L 13.681964 71.129672 L 14.165733 71.548932 L 14.662184 71.963285 L 15.171167 72.372605 L 15.692525 72.776768 L 16.2261 73.175649 L 16.77173 73.569128 L 17.329248 73.957084 L 17.898485 74.3394 L 18.479267 74.715959 L 19.071417 75.086647 L 19.674755 75.451349 L 20.289097 75.809957 L 20.914257 76.162359 L 21.550042 76.508449 L 22.196261 76.848122 L 22.852716 77.181273 L 23.519206 77.507802 L 24.19553 77.827608 L 24.881481 78.140595 L 25.57685 78.446668 L 26.281425 78.745732 L 26.994991 79.037697 L 27.717332 79.322474 L 28.448228 79.599976 L 29.187455 79.870119 L 29.934788 80.13282 L 30.69 80.388 L 55.8 55.44 L 55.8 55.44 L 55.8 55.44 L 30.69 60.682531 L 29.934788 60.840206 L 29.187455 60.996236 L 28.448228 61.150574 L 27.717332 61.303172 L 26.994991 61.453984 L 26.281425 61.602964 L 25.57685 61.750067 L 24.881481 61.895248 L 24.19553 62.038463 L 23.519206 62.179667 L 22.852716 62.318819 L 22.196261 62.455875 L 21.550042 62.590795 L 20.914257 62.723536 L 20.289097 62.854058 L 19.674755 62.982322 L 19.071417 63.108288 L 18.479267 63.231919 L 17.898485 63.353176 L 17.329248 63.472023 L 16.77173 63.588423 L 16.2261 63.702341 L 15.692525 63.813742 L 15.171167 63.922593 L 14.662184 64.028859 L 14.165733 64.13251 L 13.681964 64.233512 L 13.211025 64.331836 L 12.753058 64.427452 L 12.308204 64.520329 L 11.876598 64.610441 L 11.458372 64.69776 L 11.053652 64.782258 L 10.662563 64.863911 L 10.285223 64.942693 L 9.921747 65.01858 L 9.572246 65.09155 L 9.236827 65.16158 L 8.915591 65.228648 L 8.608637 65.292735 z" style="fill:#d2691e;fill-opacity:0.5;"/>
            </g>
            <g id="line2d_8">
                <path clip-path="url(#pcb2e41172e)" d="M 37.162675 93.662554 L 36.777876 93.096989 L 36.398872 92.519954 L 36.025778 91.931624 L 35.658707 91.332179 L 35.297771 90.7218 L 34.94308 90.100674 L 34.594743 89.46899 L 34.252865 88.826941 L 33.91755 88.174721 L 33.588901 87.512531 L 33.267018 86.84057 L 32.951998 86.159045 L 32.643938 85.468162 L 32.342932 84.768133 L 32.049071 84.05917 L 31.762445 83.341489 L 31.483141 82.615309 L 31.211244 81.880852 L 30.946837 81.13834 L 30.69 80.388 " style="fill:none;stroke:#000000;stroke-linecap:square;"/>
            </g>
            <g id="line2d_9">
                <path clip-path="url(#pcb2e41172e)" d="M 55.8 55.44 L 37.162675 93.662554 " style="fill:none;stroke:#000000;stroke-dasharray:1,1.65;stroke-dashoffset:0;"/>
            </g>
            <g id="line2d_10">
                <path clip-path="url(#pcb2e41172e)" d="M 8.608637 65.292735 L 8.915591 65.763674 L 9.236827 66.231468 L 9.572246 66.695975 L 9.921747 67.157053 L 10.285223 67.614562 L 10.662563 68.068363 L 11.053652 68.518317 L 11.458372 68.964288 L 11.876598 69.406138 L 12.308204 69.843735 L 12.753058 70.276943 L 13.211025 70.705633 L 13.681964 71.129672 L 14.165733 71.548932 L 14.662184 71.963285 L 15.171167 72.372605 L 15.692525 72.776768 L 16.2261 73.175649 L 16.77173 73.569128 L 17.329248 73.957084 L 17.898485 74.3394 L 18.479267 74.715959 L 19.071417 75.086647 L 19.674755 75.451349 L 20.289097 75.809957 L 20.914257 76.162359 L 21.550042 76.508449 L 22.196261 76.848122 L 22.852716 77.181273 L 23.519206 77.507802 L 24.19553 77.827608 L 24.881481 78.140595 L 25.57685 78.446668 L 26.281425 78.745732 L 26.994991 79.037697 L 27.717332 79.322474 L 28.448228 79.599976 L 29.187455 79.870119 L 29.934788 80.13282 L 30.69 80.388 " style="fill:none;stroke:#000000;stroke-linecap:square;"/>
            </g>
            <g id="line2d_11">
                <path clip-path="url(#pcb2e41172e)" d="M 55.8 55.44 L 8.608637 65.292735 " style="fill:none;stroke:#000000;stroke-dasharray:1,1.65;stroke-dashoffset:0;"/>
            </g>
        </g>
    </g>
    <defs>
        <clipPath id="pcb2e41172e">
            <rect height="110.88" width="111.6" x="0" y="-0"/>
        </clipPath>
    </defs>
</svg>
