<?xml version="1.0" encoding="utf-8" standalone="no"?>
<svg height="110.88pt" version="1.1" viewBox="0 0 111.6 110.88" width="111.6pt" xmlns="http://www.w3.org/2000/svg" xmlns:xlink="http://www.w3.org/1999/xlink">
    <defs>
        <style type="text/css">
            *{stroke-linecap:butt;stroke-linejoin:round;}
        </style>
    </defs>
    <g id="figure_1">
        <g id="patch_1">
            <path d="M 0 110.88 L 111.6 110.88 L 111.6 0 L 0 0 z" style="fill:none;"/>
        </g>
        <g id="axes_1">
            <g id="LineCollection_1">
                <path clip-path="url(#p3c690dfa59)" d="M 55.8 88.704 L 55.8 110.88 " style="fill:none;stroke:#000000;stroke-width:3;"/>
            </g>
            <g id="patch_2">
                <path clip-path="url(#p3c690dfa59)" d="M 55.8 72.072 C 69.1185 72.072 81.893301 70.319548 91.310903 67.2006 C 100.728504 64.081652 106.02 59.850858 106.02 55.44 C 106.02 51.029142 100.728504 46.798348 91.310903 43.6794 C 81.893301 40.560452 69.1185 38.808 55.8 38.808 C 42.4815 38.808 29.706699 40.560452 20.289097 43.6794 C 10.871496 46.798348 5.58 51.029142 5.58 55.44 C 5.58 59.850858 10.871496 64.081652 20.289097 67.2006 C 29.706699 70.319548 42.4815 72.072 55.8 72.072 z" style="fill:#c0c0c0;"/>
            </g>
            <g id="LineCollection_2">
                <path clip-path="url(#p3c690dfa59)" d="M 55.8 55.44 L 55.8 -0 " style="fill:none;stroke:#000000;stroke-width:3;"/>
            </g>
            <g id="PolyCollection_1">
                <defs>
                    <path d="M 55.8 -47.124 L 55.8 -30.492 L 72.54 -38.808 L 72.54 -38.808 L 72.54 -38.808 L 55.8 -47.124 z" id="m48dfb5395c" style="stroke:#000000;"/>
                </defs>
                <g clip-path="url(#p3c690dfa59)">
                    <use style="stroke:#000000;" x="0" xlink:href="#m48dfb5395c" y="110.88"/>
                </g>
            </g>
            <g id="PathCollection_1">
                <defs>
                    <path d="M 0 3.162278 C 0.838646 3.162278 1.643056 2.82908 2.236068 2.236068 C 2.82908 1.643056 3.162278 0.838646 3.162278 0 C 3.162278 -0.838646 2.82908 -1.643056 2.236068 -2.236068 C 1.643056 -2.82908 0.838646 -3.162278 0 -3.162278 C -0.838646 -3.162278 -1.643056 -2.82908 -2.236068 -2.236068 C -2.82908 -1.643056 -3.162278 -0.838646 -3.162278 0 C -3.162278 0.838646 -2.82908 1.643056 -2.236068 2.236068 C -1.643056 2.82908 -0.838646 3.162278 0 3.162278 z" id="m2d51bf405a" style="stroke:#000000;"/>
                </defs>
                <g clip-path="url(#p3c690dfa59)">
                    <use style="stroke:#000000;" x="55.8" xlink:href="#m2d51bf405a" y="55.44"/>
                    <use style="stroke:#000000;" x="56.67646" xlink:href="#m2d51bf405a" y="38.810533"/>
                </g>
            </g>
            <g id="line2d_1">
                <path clip-path="url(#p3c690dfa59)" d="M 55.8 72.072 L 49.679722 71.948028 L 43.650682 71.577959 L 37.802762 70.96731 L 33.000597 70.259221 L 28.448228 69.388769 L 24.19553 68.365492 L 20.289097 67.2006 L 16.77173 65.906857 L 14.165733 64.740496 L 11.876598 63.503354 L 9.921747 62.204844 L 8.316057 60.85485 L 7.291205 59.744678 L 6.502683 58.613535 L 5.954332 57.466931 L 5.648825 56.310452 L 5.587649 55.149732 L 5.771102 53.990426 L 6.198292 52.838182 L 6.867135 51.698614 L 7.774375 50.577274 L 8.915591 49.479624 L 10.662563 48.149011 L 12.753058 46.873887 L 15.171167 45.663956 L 17.898485 44.528426 L 21.550042 43.276125 L 25.57685 42.157094 L 29.934788 41.183593 L 34.576111 40.366289 L 39.449967 39.714135 L 44.502958 39.234277 L 50.550581 38.899112 L 55.8 38.808 L 55.8 38.808 " style="fill:none;stroke:#000000;stroke-linecap:square;stroke-width:3;"/>
            </g>
        </g>
    </g>
    <defs>
        <clipPath id="p3c690dfa59">
            <rect height="110.88" width="111.6" x="0" y="-0"/>
        </clipPath>
    </defs>
</svg>
