<?xml version="1.0" encoding="utf-8" standalone="no"?>
<svg height="110.88pt" version="1.1" viewBox="0 0 111.6 110.88" width="111.6pt" xmlns="http://www.w3.org/2000/svg" xmlns:xlink="http://www.w3.org/1999/xlink">
    <defs>
        <style type="text/css">
            *{stroke-linecap:butt;stroke-linejoin:round;}
        </style>
    </defs>
    <g id="figure_1">
        <g id="patch_1">
            <path d="M 0 110.88 L 111.6 110.88 L 111.6 0 L 0 0 z" style="fill:none;"/>
        </g>
        <g id="axes_1">
            <g id="LineCollection_1">
                <path clip-path="url(#pe523b9bb21)" d="M 55.8 105.336 L 55.8 5.544 " style="fill:none;stroke:#808080;stroke-dasharray:1,1.65;stroke-dashoffset:0;"/>
            </g>
            <g id="LineCollection_2">
                <path clip-path="url(#pe523b9bb21)" d="M 5.58 55.44 L 106.02 55.44 " style="fill:none;stroke:#808080;stroke-dasharray:1,1.65;stroke-dashoffset:0;"/>
            </g>
            <g id="line2d_1">
                <path clip-path="url(#pe523b9bb21)" d="M 106.02 55.44 L 105.897667 53.430493 L 105.531262 51.430775 L 104.922573 49.45059 L 104.074562 47.499585 L 102.991363 45.587265 L 101.678253 43.722947 L 100.141628 41.915712 L 98.388975 40.174367 L 96.428833 38.507395 L 94.270752 36.922916 L 91.925245 35.428651 L 88.747284 33.698727 L 85.318575 32.134268 L 81.665212 30.74718 L 77.814999 29.548018 L 73.797238 28.545911 L 69.642508 27.748483 L 65.382428 27.161805 L 61.049419 26.790341 L 56.67646 26.636918 L 52.29683 26.702705 L 47.943861 26.987199 L 43.650682 27.488236 L 39.449967 28.202003 L 35.373686 29.123068 L 31.452861 30.24442 L 27.717332 31.557526 L 24.19553 33.052392 L 20.914257 34.717641 L 17.898485 36.5406 L 15.692525 38.103232 L 13.681964 39.750328 L 11.876598 41.473862 L 10.285223 43.265438 L 8.915591 45.116326 L 7.774375 47.017511 L 6.867135 48.959729 L 6.198292 50.933519 L 5.771102 52.929264 L 5.587649 54.93724 L 5.587649 54.93724 " style="fill:none;stroke:#808080;stroke-dasharray:1,1.65;stroke-dashoffset:0;"/>
            </g>
            <g id="line2d_2">
                <path clip-path="url(#pe523b9bb21)" d="M 5.58 55.44 L 5.702333 57.449507 L 6.068738 59.449225 L 6.677427 61.42941 L 7.525438 63.380415 L 8.608637 65.292735 L 9.921747 67.157053 L 11.458372 68.964288 L 13.211025 70.705633 L 15.171167 72.372605 L 17.329248 73.957084 L 19.674755 75.451349 L 22.852716 77.181273 L 26.281425 78.745732 L 29.934788 80.13282 L 33.785001 81.331982 L 37.802762 82.334089 L 41.957492 83.131517 L 46.217572 83.718195 L 50.550581 84.089659 L 54.92354 84.243082 L 59.30317 84.177295 L 63.656139 83.892801 L 67.949318 83.391764 L 72.150033 82.677997 L 76.226314 81.756932 L 80.147139 80.63558 L 83.882668 79.322474 L 87.40447 77.827608 L 90.685743 76.162359 L 93.701515 74.3394 L 95.907475 72.776768 L 97.918036 71.129672 L 99.723402 69.406138 L 101.314777 67.614562 L 102.684409 65.763674 L 103.825625 63.862489 L 104.732865 61.920271 L 105.401708 59.946481 L 105.828898 57.950736 L 106.012351 55.94276 L 106.02 55.44 L 106.02 55.44 " style="fill:none;stroke:#808080;stroke-linecap:square;"/>
            </g>
            <g id="line2d_3">
                <path clip-path="url(#pe523b9bb21)" d="M 55.8 105.336 L 57.822556 105.214456 L 59.835259 104.850416 L 61.828302 104.245653 L 63.791976 103.403114 L 65.716713 102.326903 L 67.593138 101.022264 L 69.412108 99.495553 L 71.16476 97.754208 L 72.842557 95.806712 L 74.437325 93.662554 L 75.941293 91.332179 L 77.68245 88.174721 L 79.257068 84.768133 L 80.653163 81.13834 L 81.860111 77.312967 L 82.868726 73.321127 L 83.671332 69.193202 L 84.261819 64.960606 L 84.635695 60.655552 L 84.790115 56.310805 L 84.723901 51.959431 L 84.43756 47.634546 L 83.933269 43.369065 L 83.214867 39.195451 L 82.287822 35.145468 L 81.159188 31.249939 L 79.837555 27.538511 L 78.332982 24.03943 L 76.65692 20.779326 L 74.822124 17.783011 L 73.249344 15.591283 L 71.591553 13.593693 L 69.856827 11.799975 L 68.053618 10.218867 L 66.19071 8.858071 L 64.27718 7.724218 L 62.32235 6.822831 L 60.335744 6.158303 L 58.32704 5.733869 L 56.306024 5.551599 L 56.306024 5.551599 " style="fill:none;stroke:#808080;stroke-dasharray:1,1.65;stroke-dashoffset:0;"/>
            </g>
            <g id="line2d_4">
                <path clip-path="url(#pe523b9bb21)" d="M 55.8 5.544 L 53.777444 5.665544 L 51.764741 6.029584 L 49.771698 6.634347 L 47.808024 7.476886 L 45.883287 8.553097 L 44.006862 9.857736 L 42.187892 11.384447 L 40.43524 13.125792 L 38.757443 15.073288 L 37.162675 17.217446 L 35.658707 19.547821 L 33.91755 22.705279 L 32.342932 26.111867 L 30.946837 29.74166 L 29.739889 33.567033 L 28.731274 37.558873 L 27.928668 41.686798 L 27.338181 45.919394 L 26.964305 50.224448 L 26.809885 54.569195 L 26.876099 58.920569 L 27.16244 63.245454 L 27.666731 67.510935 L 28.385133 71.684549 L 29.312178 75.734532 L 30.440812 79.630061 L 31.762445 83.341489 L 33.267018 86.84057 L 34.94308 90.100674 L 36.777876 93.096989 L 38.350656 95.288717 L 40.008447 97.286307 L 41.743173 99.080025 L 43.546382 100.661133 L 45.40929 102.021929 L 47.32282 103.155782 L 49.27765 104.057169 L 51.264256 104.721697 L 53.27296 105.146131 L 55.293976 105.328401 L 55.8 105.336 L 55.8 105.336 " style="fill:none;stroke:#808080;stroke-linecap:square;"/>
            </g>
            <g id="line2d_5">
                <path clip-path="url(#pe523b9bb21)" d="M 106.02 55.44 L 105.897667 51.959431 L 105.531262 48.495819 L 104.922573 45.066038 L 104.074562 41.686798 L 102.991363 38.374563 L 101.678253 35.145468 L 100.141628 32.015247 L 98.388975 28.999148 L 96.428833 26.111867 L 94.270752 23.367469 L 91.925245 20.779326 L 89.403739 18.360046 L 86.718519 16.121415 L 83.882668 14.074341 L 80.91 12.228796 L 77.814999 10.593772 L 74.612743 9.177234 L 71.318833 7.986084 L 67.949318 7.026124 L 64.520611 6.302032 L 61.049419 5.817336 L 57.552653 5.574395 L 54.047347 5.574395 L 50.550581 5.817336 L 47.079389 6.302032 L 43.650682 7.026124 L 40.281167 7.986084 L 36.987257 9.177234 L 33.785001 10.593772 L 30.69 12.228796 L 27.717332 14.074341 L 24.881481 16.121415 L 22.196261 18.360046 L 19.674755 20.779326 L 17.329248 23.367469 L 15.171167 26.111867 L 13.211025 28.999148 L 11.458372 32.015247 L 9.921747 35.145468 L 8.608637 38.374563 L 7.525438 41.686798 L 6.677427 45.066038 L 6.068738 48.495819 L 5.702333 51.959431 L 5.58 55.44 L 5.702333 58.920569 L 6.068738 62.384181 L 6.677427 65.813962 L 7.525438 69.193202 L 8.608637 72.505437 L 9.921747 75.734532 L 11.458372 78.864753 L 13.211025 81.880852 L 15.171167 84.768133 L 17.329248 87.512531 L 19.674755 90.100674 L 22.196261 92.519954 L 24.881481 94.758585 L 27.717332 96.805659 L 30.69 98.651204 L 33.785001 100.286228 L 36.987257 101.702766 L 40.281167 102.893916 L 43.650682 103.853876 L 47.079389 104.577968 L 50.550581 105.062664 L 54.047347 105.305605 L 57.552653 105.305605 L 61.049419 105.062664 L 64.520611 104.577968 L 67.949318 103.853876 L 71.318833 102.893916 L 74.612743 101.702766 L 77.814999 100.286228 L 80.91 98.651204 L 83.882668 96.805659 L 86.718519 94.758585 L 89.403739 92.519954 L 91.925245 90.100674 L 94.270752 87.512531 L 96.428833 84.768133 L 98.388975 81.880852 L 100.141628 78.864753 L 101.678253 75.734532 L 102.991363 72.505437 L 104.074562 69.193202 L 104.922573 65.813962 L 105.531262 62.384181 L 105.897667 58.920569 L 106.02 55.44 L 106.02 55.44 " style="fill:none;stroke:#808080;stroke-linecap:square;"/>
            </g>
            <g id="line2d_6">
                <path clip-path="url(#pe523b9bb21)" d="M 55.8 55.44 L 81.665212 30.74718 " style="fill:none;stroke:#808080;stroke-dasharray:1,1.65;stroke-dashoffset:0;"/>
            </g>
            <g id="line2d_7">
                <path clip-path="url(#pe523b9bb21)" d="M 30.69 80.388 L 55.8 55.44 " style="fill:none;stroke:#000000;stroke-dasharray:1,1.65;stroke-dashoffset:0;"/>
            </g>
            <g id="PolyCollection_1">
                <path clip-path="url(#pe523b9bb21)" d="M 30.69 80.388 L 30.69 80.388 L 31.452861 80.63558 L 32.223138 80.875485 L 33.000597 81.107643 L 33.785001 81.331982 L 34.576111 81.548434 L 35.373686 81.756932 L 36.177483 81.957415 L 36.987257 82.14982 L 37.802762 82.334089 L 38.623748 82.510166 L 39.449967 82.677997 L 40.281167 82.837531 L 41.117093 82.98872 L 41.957492 83.131517 L 42.802108 83.265878 L 43.650682 83.391764 L 44.502958 83.509135 L 45.358675 83.617957 L 46.217572 83.718195 L 47.079389 83.809819 L 47.943861 83.892801 L 48.810727 83.967117 L 49.679722 84.032743 L 50.550581 84.089659 L 51.423039 84.137848 L 52.29683 84.177295 L 53.171688 84.207989 L 54.047347 84.22992 L 54.92354 84.243082 L 55.8 84.247469 L 56.67646 84.243082 L 57.552653 84.22992 L 58.428312 84.207989 L 59.30317 84.177295 L 60.176961 84.137848 L 61.049419 84.089659 L 61.920278 84.032743 L 62.789273 83.967117 L 63.656139 83.892801 L 64.520611 83.809819 L 65.382428 83.718195 L 66.241325 83.617957 L 67.097042 83.509135 L 67.949318 83.391764 L 68.797892 83.265878 L 69.642508 83.131517 L 70.482907 82.98872 L 71.318833 82.837531 L 72.150033 82.677997 L 72.976252 82.510166 L 73.797238 82.334089 L 74.612743 82.14982 L 75.422517 81.957415 L 76.226314 81.756932 L 77.023889 81.548434 L 77.814999 81.331982 L 78.599403 81.107643 L 79.376862 80.875485 L 80.147139 80.63558 L 80.91 80.388 L 81.665212 80.13282 L 82.412545 79.870119 L 83.151772 79.599976 L 83.882668 79.322474 L 84.605009 79.037697 L 85.318575 78.745732 L 86.02315 78.446668 L 86.718519 78.140595 L 87.40447 77.827608 L 88.080794 77.507802 L 88.747284 77.181273 L 89.403739 76.848122 L 90.049958 76.508449 L 90.685743 76.162359 L 91.310903 75.809957 L 91.925245 75.451349 L 92.528583 75.086647 L 93.120733 74.715959 L 93.701515 74.3394 L 93.701515 74.3394 L 93.701515 74.3394 L 93.120733 74.049796 L 92.528583 73.754523 L 91.925245 73.453672 L 91.310903 73.147333 L 90.685743 72.835601 L 90.049958 72.518569 L 89.403739 72.196336 L 88.747284 71.868998 L 88.080794 71.536656 L 87.40447 71.19941 L 86.718519 70.857364 L 86.02315 70.510622 L 85.318575 70.159289 L 84.605009 69.803473 L 83.882668 69.443281 L 83.151772 69.078824 L 82.412545 68.710212 L 81.665212 68.337558 L 80.91 67.960975 L 80.147139 67.580579 L 79.376862 67.196484 L 78.599403 66.808808 L 77.814999 66.417669 L 77.023889 66.023186 L 76.226314 65.625479 L 75.422517 65.22467 L 74.612743 64.82088 L 73.797238 64.414233 L 72.976252 64.004852 L 72.150033 63.592862 L 71.318833 63.178388 L 70.482907 62.761558 L 69.642508 62.342497 L 68.797892 61.921334 L 67.949318 61.498196 L 67.097042 61.073213 L 66.241325 60.646514 L 65.382428 60.218229 L 64.520611 59.788489 L 63.656139 59.357424 L 62.789273 58.925166 L 61.920278 58.491846 L 61.049419 58.057597 L 60.176961 57.62255 L 59.30317 57.186838 L 58.428312 56.750594 L 57.552653 56.313951 L 56.67646 55.877042 L 55.8 55.44 L 54.92354 56.310805 L 54.047347 57.181345 L 53.171688 58.051355 L 52.29683 58.920569 L 51.423039 59.788723 L 50.550581 60.655552 L 49.679722 61.520793 L 48.810727 62.384181 L 47.943861 63.245454 L 47.079389 64.104349 L 46.217572 64.960606 L 45.358675 65.813962 L 44.502958 66.664158 L 43.650682 67.510935 L 42.802108 68.354035 L 41.957492 69.193202 L 41.117093 70.028179 L 40.281167 70.858712 L 39.449967 71.684549 L 38.623748 72.505437 L 37.802762 73.321127 L 36.987257 74.131371 L 36.177483 74.93592 L 35.373686 75.734532 L 34.576111 76.526961 L 33.785001 77.312967 L 33.000597 78.09231 L 32.223138 78.864753 L 31.452861 79.630061 L 30.69 80.388 z" style="fill:#d2691e;fill-opacity:0.5;"/>
            </g>
            <g id="PolyCollection_2">
                <path clip-path="url(#pe523b9bb21)" d="M 30.69 80.388 L 30.69 80.388 L 30.440812 79.630061 L 30.199349 78.864753 L 29.965684 78.09231 L 29.739889 77.312967 L 29.522031 76.526961 L 29.312178 75.734532 L 29.110394 74.93592 L 28.916739 74.131371 L 28.731274 73.321127 L 28.554054 72.505437 L 28.385133 71.684549 L 28.224563 70.858712 L 28.072393 70.028179 L 27.928668 69.193202 L 27.793434 68.354035 L 27.666731 67.510935 L 27.548597 66.664158 L 27.43907 65.813962 L 27.338181 64.960606 L 27.245962 64.104349 L 27.16244 63.245454 L 27.087642 62.384181 L 27.02159 61.520793 L 26.964305 60.655552 L 26.915802 59.788723 L 26.876099 58.920569 L 26.845205 58.051355 L 26.823132 57.181345 L 26.809885 56.310805 L 26.805469 55.44 L 26.809885 54.569195 L 26.823132 53.698655 L 26.845205 52.828645 L 26.876099 51.959431 L 26.915802 51.091277 L 26.964305 50.224448 L 27.02159 49.359207 L 27.087642 48.495819 L 27.16244 47.634546 L 27.245962 46.775651 L 27.338181 45.919394 L 27.43907 45.066038 L 27.548597 44.215842 L 27.666731 43.369065 L 27.793434 42.525965 L 27.928668 41.686798 L 28.072393 40.851821 L 28.224563 40.021288 L 28.385133 39.195451 L 28.554054 38.374563 L 28.731274 37.558873 L 28.916739 36.748629 L 29.110394 35.94408 L 29.312178 35.145468 L 29.522031 34.353039 L 29.739889 33.567033 L 29.965684 32.78769 L 30.199349 32.015247 L 30.440812 31.249939 L 30.69 30.492 L 30.946837 29.74166 L 31.211244 28.999148 L 31.483141 28.264691 L 31.762445 27.538511 L 32.049071 26.82083 L 32.342932 26.111867 L 32.643938 25.411838 L 32.951998 24.720955 L 33.267018 24.03943 L 33.588901 23.367469 L 33.91755 22.705279 L 34.252865 22.053059 L 34.594743 21.41101 L 34.94308 20.779326 L 35.297771 20.1582 L 35.658707 19.547821 L 36.025778 18.948376 L 36.398872 18.360046 L 36.777876 17.783011 L 55.8 55.44 L 55.8 55.44 L 55.8 55.44 L 36.777876 74.3394 L 36.398872 74.715959 L 36.025778 75.086647 L 35.658707 75.451349 L 35.297771 75.809957 L 34.94308 76.162359 L 34.594743 76.508449 L 34.252865 76.848122 L 33.91755 77.181273 L 33.588901 77.507802 L 33.267018 77.827608 L 32.951998 78.140595 L 32.643938 78.446668 L 32.342932 78.745732 L 32.049071 79.037697 L 31.762445 79.322474 L 31.483141 79.599976 L 31.211244 79.870119 L 30.946837 80.13282 L 30.69 80.388 L 30.440812 80.63558 L 30.199349 80.875485 L 29.965684 81.107643 L 29.739889 81.331982 L 29.522031 81.548434 L 29.312178 81.756932 L 29.110394 81.957415 L 28.916739 82.14982 L 28.731274 82.334089 L 28.554054 82.510166 L 28.385133 82.677997 L 28.224563 82.837531 L 28.072393 82.98872 L 27.928668 83.131517 L 27.793434 83.265878 L 27.666731 83.391764 L 27.548597 83.509135 L 27.43907 83.617957 L 27.338181 83.718195 L 27.245962 83.809819 L 27.16244 83.892801 L 27.087642 83.967117 L 27.02159 84.032743 L 26.964305 84.089659 L 26.915802 84.137848 L 26.876099 84.177295 L 26.845205 84.207989 L 26.823132 84.22992 L 26.809885 84.243082 L 26.805469 84.247469 L 26.809885 84.243082 L 26.823132 84.22992 L 26.845205 84.207989 L 26.876099 84.177295 L 26.915802 84.137848 L 26.964305 84.089659 L 27.02159 84.032743 L 27.087642 83.967117 L 27.16244 83.892801 L 27.245962 83.809819 L 27.338181 83.718195 L 27.43907 83.617957 L 27.548597 83.509135 L 27.666731 83.391764 L 27.793434 83.265878 L 27.928668 83.131517 L 28.072393 82.98872 L 28.224563 82.837531 L 28.385133 82.677997 L 28.554054 82.510166 L 28.731274 82.334089 L 28.916739 82.14982 L 29.110394 81.957415 L 29.312178 81.756932 L 29.522031 81.548434 L 29.739889 81.331982 L 29.965684 81.107643 L 30.199349 80.875485 L 30.440812 80.63558 L 30.69 80.388 z" style="fill:#4169e1;fill-opacity:0.5;"/>
            </g>
            <g id="line2d_8">
                <path clip-path="url(#pe523b9bb21)" d="M 30.69 80.388 L 30.440812 79.630061 L 30.199349 78.864753 L 29.965684 78.09231 L 29.739889 77.312967 L 29.522031 76.526961 L 29.312178 75.734532 L 29.110394 74.93592 L 28.916739 74.131371 L 28.731274 73.321127 L 28.554054 72.505437 L 28.385133 71.684549 L 28.224563 70.858712 L 28.072393 70.028179 L 27.928668 69.193202 L 27.793434 68.354035 L 27.666731 67.510935 L 27.548597 66.664158 L 27.43907 65.813962 L 27.338181 64.960606 L 27.245962 64.104349 L 27.16244 63.245454 L 27.087642 62.384181 L 27.02159 61.520793 L 26.964305 60.655552 L 26.915802 59.788723 L 26.876099 58.920569 L 26.845205 58.051355 L 26.823132 57.181345 L 26.809885 56.310805 L 26.805469 55.44 L 26.809885 54.569195 L 26.823132 53.698655 L 26.845205 52.828645 L 26.876099 51.959431 L 26.915802 51.091277 L 26.964305 50.224448 L 27.02159 49.359207 L 27.087642 48.495819 L 27.16244 47.634546 L 27.245962 46.775651 L 27.338181 45.919394 L 27.43907 45.066038 L 27.548597 44.215842 L 27.666731 43.369065 L 27.793434 42.525965 L 27.928668 41.686798 L 28.072393 40.851821 L 28.224563 40.021288 L 28.385133 39.195451 L 28.554054 38.374563 L 28.731274 37.558873 L 28.916739 36.748629 L 29.110394 35.94408 L 29.312178 35.145468 L 29.522031 34.353039 L 29.739889 33.567033 L 29.965684 32.78769 L 30.199349 32.015247 L 30.440812 31.249939 L 30.69 30.492 L 30.946837 29.74166 L 31.211244 28.999148 L 31.483141 28.264691 L 31.762445 27.538511 L 32.049071 26.82083 L 32.342932 26.111867 L 32.643938 25.411838 L 32.951998 24.720955 L 33.267018 24.03943 L 33.588901 23.367469 L 33.91755 22.705279 L 34.252865 22.053059 L 34.594743 21.41101 L 34.94308 20.779326 L 35.297771 20.1582 L 35.658707 19.547821 L 36.025778 18.948376 L 36.398872 18.360046 L 36.777876 17.783011 " style="fill:none;stroke:#000000;stroke-linecap:square;"/>
            </g>
            <g id="line2d_9">
                <path clip-path="url(#pe523b9bb21)" d="M 55.8 55.44 L 36.777876 17.783011 " style="fill:none;stroke:#000000;stroke-dasharray:1,1.65;stroke-dashoffset:0;"/>
            </g>
            <g id="line2d_10">
                <path clip-path="url(#pe523b9bb21)" d="M 30.69 80.388 L 31.452861 80.63558 L 32.223138 80.875485 L 33.000597 81.107643 L 33.785001 81.331982 L 34.576111 81.548434 L 35.373686 81.756932 L 36.177483 81.957415 L 36.987257 82.14982 L 37.802762 82.334089 L 38.623748 82.510166 L 39.449967 82.677997 L 40.281167 82.837531 L 41.117093 82.98872 L 41.957492 83.131517 L 42.802108 83.265878 L 43.650682 83.391764 L 44.502958 83.509135 L 45.358675 83.617957 L 46.217572 83.718195 L 47.079389 83.809819 L 47.943861 83.892801 L 48.810727 83.967117 L 49.679722 84.032743 L 50.550581 84.089659 L 51.423039 84.137848 L 52.29683 84.177295 L 53.171688 84.207989 L 54.047347 84.22992 L 54.92354 84.243082 L 55.8 84.247469 L 56.67646 84.243082 L 57.552653 84.22992 L 58.428312 84.207989 L 59.30317 84.177295 L 60.176961 84.137848 L 61.049419 84.089659 L 61.920278 84.032743 L 62.789273 83.967117 L 63.656139 83.892801 L 64.520611 83.809819 L 65.382428 83.718195 L 66.241325 83.617957 L 67.097042 83.509135 L 67.949318 83.391764 L 68.797892 83.265878 L 69.642508 83.131517 L 70.482907 82.98872 L 71.318833 82.837531 L 72.150033 82.677997 L 72.976252 82.510166 L 73.797238 82.334089 L 74.612743 82.14982 L 75.422517 81.957415 L 76.226314 81.756932 L 77.023889 81.548434 L 77.814999 81.331982 L 78.599403 81.107643 L 79.376862 80.875485 L 80.147139 80.63558 L 80.91 80.388 L 81.665212 80.13282 L 82.412545 79.870119 L 83.151772 79.599976 L 83.882668 79.322474 L 84.605009 79.037697 L 85.318575 78.745732 L 86.02315 78.446668 L 86.718519 78.140595 L 87.40447 77.827608 L 88.080794 77.507802 L 88.747284 77.181273 L 89.403739 76.848122 L 90.049958 76.508449 L 90.685743 76.162359 L 91.310903 75.809957 L 91.925245 75.451349 L 92.528583 75.086647 L 93.120733 74.715959 L 93.701515 74.3394 " style="fill:none;stroke:#000000;stroke-linecap:square;"/>
            </g>
            <g id="line2d_11">
                <path clip-path="url(#pe523b9bb21)" d="M 55.8 55.44 L 93.701515 74.3394 " style="fill:none;stroke:#000000;stroke-dasharray:1,1.65;stroke-dashoffset:0;"/>
            </g>
        </g>
    </g>
    <defs>
        <clipPath id="pe523b9bb21">
            <rect height="110.88" width="111.6" x="0" y="-0"/>
        </clipPath>
    </defs>
</svg>
