<?xml version="1.0" encoding="utf-8" standalone="no"?>
<svg height="110.88pt" version="1.1" viewBox="0 0 111.6 110.88" width="111.6pt" xmlns="http://www.w3.org/2000/svg" xmlns:xlink="http://www.w3.org/1999/xlink">
    <defs>
        <style type="text/css">
            *{stroke-linecap:butt;stroke-linejoin:round;}
        </style>
    </defs>
    <g id="figure_1">
        <g id="patch_1">
            <path d="M 0 110.88 L 111.6 110.88 L 111.6 0 L 0 0 z" style="fill:none;"/>
        </g>
        <g id="axes_1">
            <g id="LineCollection_1">
                <path clip-path="url(#pe1d425091f)" d="M 55.8 88.704 L 55.8 110.88 " style="fill:none;stroke:#000000;stroke-width:3;"/>
            </g>
            <g id="patch_2">
                <path clip-path="url(#pe1d425091f)" d="M 55.8 72.072 C 69.1185 72.072 81.893301 70.319548 91.310903 67.2006 C 100.728504 64.081652 106.02 59.850858 106.02 55.44 C 106.02 51.029142 100.728504 46.798348 91.310903 43.6794 C 81.893301 40.560452 69.1185 38.808 55.8 38.808 C 42.4815 38.808 29.706699 40.560452 20.289097 43.6794 C 10.871496 46.798348 5.58 51.029142 5.58 55.44 C 5.58 59.850858 10.871496 64.081652 20.289097 67.2006 C 29.706699 70.319548 42.4815 72.072 55.8 72.072 z" style="fill:#c0c0c0;"/>
            </g>
            <g id="LineCollection_2">
                <path clip-path="url(#pe1d425091f)" d="M 55.8 55.44 L 55.8 -0 " style="fill:none;stroke:#000000;stroke-width:3;"/>
            </g>
            <g id="PolyCollection_1">
                <defs>
                    <path d="M 39.06 -38.808 L 39.06 -38.808 L 55.8 -30.492 L 55.8 -47.124 L 55.8 -47.124 L 39.06 -38.808 z" id="m209a75ebdd" style="stroke:#000000;"/>
                </defs>
                <g clip-path="url(#pe1d425091f)">
                    <use style="stroke:#000000;" x="0" xlink:href="#m209a75ebdd" y="110.88"/>
                </g>
            </g>
            <g id="PathCollection_1">
                <defs>
                    <path d="M 0 3.162278 C 0.838646 3.162278 1.643056 2.82908 2.236068 2.236068 C 2.82908 1.643056 3.162278 0.838646 3.162278 0 C 3.162278 -0.838646 2.82908 -1.643056 2.236068 -2.236068 C 1.643056 -2.82908 0.838646 -3.162278 0 -3.162278 C -0.838646 -3.162278 -1.643056 -2.82908 -2.236068 -2.236068 C -2.82908 -1.643056 -3.162278 -0.838646 -3.162278 0 C -3.162278 0.838646 -2.82908 1.643056 -2.236068 2.236068 C -1.643056 2.82908 -0.838646 3.162278 0 3.162278 z" id="ma941525f67" style="stroke:#000000;"/>
                </defs>
                <g clip-path="url(#pe1d425091f)">
                    <use style="stroke:#000000;" x="55.8" xlink:href="#ma941525f67" y="55.44"/>
                    <use style="stroke:#000000;" x="106.012351" xlink:href="#ma941525f67" y="55.149732"/>
                </g>
            </g>
            <g id="line2d_1">
                <path clip-path="url(#pe1d425091f)" d="M 55.8 55.44 L 106.012351 55.149732 " style="fill:none;stroke:#000000;stroke-dasharray:2,3.3;stroke-dashoffset:0;stroke-width:2;"/>
            </g>
            <g id="line2d_2">
                <path clip-path="url(#pe1d425091f)" d="M 55.8 72.072 L 56.67646 72.069467 L 57.552653 72.061868 L 58.428312 72.049206 L 59.30317 72.031485 L 60.176961 72.00871 L 61.049419 71.980888 L 61.920278 71.948028 L 62.789273 71.910139 L 63.656139 71.867232 L 64.520611 71.819323 L 65.382428 71.766423 L 66.241325 71.708551 L 67.097042 71.645723 L 67.949318 71.577959 L 68.797892 71.505278 L 69.642508 71.427705 L 70.482907 71.345261 L 71.318833 71.257972 L 72.150033 71.165865 L 72.976252 71.068968 L 73.797238 70.96731 L 74.612743 70.860922 L 75.422517 70.749837 L 76.226314 70.634088 L 77.023889 70.513711 L 77.814999 70.388743 L 78.599403 70.259221 L 79.376862 70.125184 L 80.147139 69.986675 L 80.91 69.843735 L 81.665212 69.696407 L 82.412545 69.544736 L 83.151772 69.388769 L 83.882668 69.228553 L 84.605009 69.064137 L 85.318575 68.895571 L 86.02315 68.722906 L 86.718519 68.546195 L 87.40447 68.365492 L 88.080794 68.180851 L 88.747284 67.99233 L 89.403739 67.799985 L 90.049958 67.603875 L 90.685743 67.40406 L 91.310903 67.2006 L 91.925245 66.993558 L 92.528583 66.782997 L 93.120733 66.56898 L 93.701515 66.351574 L 94.270752 66.130844 L 94.82827 65.906857 L 95.3739 65.679682 L 95.907475 65.449387 L 96.428833 65.216044 L 96.937816 64.979723 L 97.434267 64.740496 L 97.918036 64.498436 L 98.388975 64.253617 L 98.846942 64.006113 L 99.291796 63.756 L 99.723402 63.503354 L 100.141628 63.248251 L 100.546348 62.99077 L 100.937437 62.730989 L 101.314777 62.468987 L 101.678253 62.204844 L 102.027754 61.93864 L 102.363173 61.670457 L 102.684409 61.400376 L 102.991363 61.128479 L 103.283943 60.85485 L 103.562058 60.579571 L 103.825625 60.302726 L 104.074562 60.024401 L 104.308795 59.744678 L 104.528251 59.463645 L 104.732865 59.181386 L 104.922573 58.897987 L 105.097317 58.613535 L 105.257045 58.328116 L 105.401708 58.041818 L 105.531262 57.754727 L 105.645668 57.466931 L 105.74489 57.178517 L 105.828898 56.889574 L 105.897667 56.60019 L 105.951175 56.310452 L 105.989407 56.020448 L 106.012351 55.730268 L 106.02 55.44 " style="fill:none;stroke:#000000;stroke-linecap:square;stroke-width:3;"/>
            </g>
        </g>
    </g>
    <defs>
        <clipPath id="pe1d425091f">
            <rect height="110.88" width="111.6" x="0" y="-0"/>
        </clipPath>
    </defs>
</svg>
